<?xml version="1.0" encoding="UTF-8"?>
<svg width="3683px" height="385px" viewBox="0 0 3683 385" version="1.1" xmlns="http://www.w3.org/2000/svg" xmlns:xlink="http://www.w3.org/1999/xlink">
    <!-- Generator: Sketch 48.2 (47327) - http://www.bohemiancoding.com/sketch -->
    <title>Logo</title>
    <desc>Created with Sketch.</desc>
    <defs></defs>
    <g id="Artboard" stroke="none" stroke-width="1" fill="none" fill-rule="evenodd" transform="translate(-2757.000000, -300.000000)">
        <g id="Logo" transform="translate(2738.000000, 275.000000)">
            <g id="Group">
                <g id="Logo" stroke="#000000" stroke-width="50">
                    <path d="M44.6473895,386.989707 C44.6473769,386.993558 44.6474127,386.99695 44.6474902,386.999883 C44.6472757,386.99177 44.646891,386.982845 44.6463203,386.973126 Z M42.8879227,383.85873 C42.8857263,383.857276 42.883586,383.855876 42.8815025,383.854529 C42.8865867,383.857816 42.8934157,383.86196 42.9020357,383.866921 Z M45.2315766,384.603406 C46.4761687,384.84677 48.0694052,385 50.0003191,385 L449.999681,385 C451.93069,385 453.523529,384.846497 454.767276,384.602786 C454.327645,383.413284 453.628988,381.97237 452.622861,380.322321 L254.68733,55.7080505 C252.979629,52.9074205 251.334585,51.1259633 250.006496,50.2426509 C250.004437,50.2412814 250.002383,50.2399173 250.000336,50.2385585 C249.997854,50.2402048 249.995364,50.241859 249.992865,50.2435211 C248.664497,51.1272251 247.01966,52.9085863 245.31267,55.7080505 L47.3771391,380.322321 C46.3710541,381.9723 45.6719535,383.413394 45.2315766,384.603406 Z M455.348947,386.984712 C455.348849,386.987343 455.348767,386.989897 455.348701,386.992376 C455.348862,386.986327 455.348846,386.978346 455.348598,386.968413 Z" id="Triangle-5"></path>
                    <path d="M249.64739,386.989707 C249.647377,386.993558 249.647413,386.99695 249.64749,386.999883 C249.647276,386.99177 249.646891,386.982845 249.64632,386.973126 Z M247.887923,383.85873 C247.885726,383.857276 247.883586,383.855876 247.881503,383.854529 C247.886587,383.857816 247.893416,383.86196 247.902036,383.866921 Z M250.231577,384.603406 C251.476169,384.84677 253.069405,385 255.000319,385 L654.999681,385 C656.93069,385 658.523529,384.846497 659.767276,384.602786 C659.327645,383.413284 658.628988,381.97237 657.622861,380.322321 L459.68733,55.7080505 C457.979629,52.9074205 456.334585,51.1259633 455.006496,50.2426509 C455.004437,50.2412814 455.002383,50.2399173 455.000336,50.2385585 C454.997854,50.2402048 454.995364,50.241859 454.992865,50.2435211 C453.664497,51.1272251 452.01966,52.9085863 450.31267,55.7080505 L252.377139,380.322321 C251.371054,381.9723 250.671953,383.413394 250.231577,384.603406 Z M660.348947,386.984712 C660.348849,386.987343 660.348767,386.989897 660.348701,386.992376 C660.348862,386.986327 660.348846,386.978346 660.348598,386.968413 Z" id="Triangle-5"></path>
                </g>
                <path d="M1061.71733,39.4995012 L950.579649,203.731295 L840.34187,39.4995012 L767,39.4995012 L767,376.962091 L834.942468,376.962091 L834.942468,134.888927 L950.129699,312.169274 L1066.66678,134.888927 L1066.66678,376.962091 L1134.1593,376.962091 L1134.1593,39.4995012 L1061.71733,39.4995012 Z M1396.09054,98.442967 L1396.09054,39.4995012 L1195.86274,39.4995012 L1195.86274,376.962091 L1396.09054,376.962091 L1396.09054,317.568676 L1263.80521,317.568676 L1263.80521,237.927504 L1377.19264,237.927504 L1377.19264,178.534088 L1263.80521,178.534088 L1263.80521,98.442967 L1396.09054,98.442967 Z M1568.93166,381.461593 C1637.77403,381.461593 1694.0178,349.515134 1694.0178,281.122716 C1694.0178,215.879948 1635.52428,192.932492 1586.92967,173.584637 C1552.73346,160.086133 1523.4867,148.38743 1523.4867,125.439974 C1523.4867,104.742269 1542.38461,91.6937152 1569.38161,91.6937152 C1602.67792,91.6937152 1626.52528,103.392418 1647.22298,126.789825 L1691.31809,84.0445631 C1663.87114,54.7978053 1620.67593,35 1567.58181,35 C1502.78899,35 1453.74443,71.4459598 1453.74443,128.139675 C1453.74443,182.583639 1502.33904,203.281345 1548.23396,221.27935 C1587.82957,236.577654 1625.17543,250.526108 1625.17543,282.022616 C1624.72548,308.119723 1601.77802,318.468576 1571.18141,318.468576 C1533.3856,318.468576 1501.88909,302.270372 1482.54124,272.573664 L1435.74643,318.918526 C1464.09328,356.264386 1514.4877,381.461593 1568.93166,381.461593 Z M1958.19879,39.4995012 L1958.19879,178.084138 L1813.31485,178.084138 L1813.31485,39.4995012 L1745.37238,39.4995012 L1745.37238,376.962091 L1813.31485,376.962091 L1813.31485,237.927504 L1958.19879,237.927504 L1958.19879,376.962091 L2026.14126,376.962091 L2026.14126,39.4995012 L1958.19879,39.4995012 Z M2205.73163,381.461593 C2267.82475,381.461593 2317.31926,351.314935 2317.31926,288.771868 C2317.31926,226.678751 2262.8753,206.880946 2213.83073,187.983041 C2172.88527,172.684737 2135.53941,157.836383 2135.53941,119.590623 C2135.53941,79.0951118 2169.28567,61.5470571 2205.73163,61.5470571 C2246.67709,61.5470571 2275.4739,78.6451617 2290.7722,100.242767 L2311.46991,79.0951118 C2290.32225,54.3478552 2253.42634,35 2205.73163,35 C2152.63752,35 2104.49285,62.8969075 2104.49285,121.840373 C2104.49285,176.284338 2153.08747,193.832392 2199.43233,211.380447 C2243.52744,227.578652 2286.72265,243.776856 2286.2727,290.121718 C2286.2727,334.21683 2249.37679,352.214835 2206.18158,352.214835 C2156.68707,352.214835 2117.54141,327.017628 2104.0429,294.171269 L2082.4453,316.668775 C2103.143,353.564685 2149.93782,381.461593 2205.73163,381.461593 Z M2564.64869,39.0495511 L2345.52298,39.0495511 L2345.52298,66.4965084 L2440.01251,66.4965084 L2440.01251,376.512141 L2470.15916,376.512141 L2470.15916,66.4965084 L2564.64869,66.4965084 L2564.64869,39.0495511 Z M2740.886,381.461593 C2810.17832,381.461593 2865.52218,330.167279 2865.52218,265.824412 L2865.52218,39.4995012 L2835.37553,39.4995012 L2835.37553,261.324911 C2835.37553,312.619224 2793.53017,354.014635 2740.886,354.014635 C2688.69179,354.014635 2646.84643,312.619224 2646.84643,261.324911 L2646.84643,39.4995012 L2616.24982,39.4995012 L2616.24982,265.824412 C2616.24982,330.167279 2671.59368,381.461593 2740.886,381.461593 Z M2947.26997,376.962091 L2947.26997,39.4995012 L3036.81004,39.4995012 C3129.94972,39.4995012 3205.54134,115.091121 3205.54134,208.230796 C3205.54134,301.370471 3129.94972,376.962091 3036.81004,376.962091 L2947.26997,376.962091 Z M2977.41663,349.515134 L3036.36009,349.515134 C3113.75151,349.515134 3174.94473,286.972067 3174.94473,208.230796 C3174.94473,129.489525 3113.75151,66.4965084 3036.36009,66.4965084 L2977.41663,66.4965084 L2977.41663,349.515134 Z M3273.79062,376.962091 L3304.38723,376.962091 L3304.38723,39.4995012 L3273.79062,39.4995012 L3273.79062,376.962091 Z M3537.31826,381.461593 C3441.47888,381.461593 3372.63651,304.070172 3372.63651,208.230796 C3372.63651,112.391421 3441.47888,35 3537.31826,35 C3632.70768,35 3702,112.391421 3702,208.230796 C3702,304.070172 3632.70768,381.461593 3537.31826,381.461593 Z M3537.31826,352.214835 C3617.40938,352.214835 3672.75324,288.321918 3672.75324,208.230796 C3672.75324,127.689725 3617.40938,63.7968077 3537.31826,63.7968077 C3457.22713,63.7968077 3401.43332,127.689725 3401.43332,208.230796 C3401.43332,288.321918 3457.22713,352.214835 3537.31826,352.214835 Z" id="MESHSTUDIO" fill="#000000"></path>
            </g>
        </g>
    </g>
</svg>