<?xml version="1.0" encoding="UTF-8"?>
<svg width="2834px" height="52px" viewBox="0 0 2834 52" version="1.1" xmlns="http://www.w3.org/2000/svg" xmlns:xlink="http://www.w3.org/1999/xlink">
    <!-- Generator: Sketch 48.2 (47327) - http://www.bohemiancoding.com/sketch -->
    <title>Group</title>
    <desc>Created with Sketch.</desc>
    <defs></defs>
    <g id="Artboard" stroke="none" stroke-width="1" fill="none" fill-rule="evenodd" transform="translate(-18.000000, -6.000000)" fill-opacity="0.15">
        <g id="Group" transform="translate(18.000000, 6.000000)" fill="#002066">
            <g id="circle-graphic">
                <g id="Group-13" transform="translate(756.000000, 0.000000)">
                    <circle id="Oval-Copy-95" cx="2" cy="38" r="2"></circle>
                    <circle id="Oval-Copy-98" cx="2" cy="26" r="2"></circle>
                    <circle id="Oval-Copy-97" cx="2" cy="14" r="2"></circle>
                    <circle id="Oval-Copy-96" cx="2" cy="2" r="2"></circle>
                </g>
                <g id="Group-13-Copy-36" transform="translate(1176.000000, 0.000000)">
                    <circle id="Oval-Copy-95" cx="2" cy="38" r="2"></circle>
                    <circle id="Oval-Copy-98" cx="2" cy="26" r="2"></circle>
                    <circle id="Oval-Copy-97" cx="2" cy="14" r="2"></circle>
                    <circle id="Oval-Copy-96" cx="2" cy="2" r="2"></circle>
                </g>
                <g id="Group-13-Copy-28" transform="translate(980.000000, 0.000000)">
                    <circle id="Oval-Copy-99" cx="2" cy="50" r="2"></circle>
                    <circle id="Oval-Copy-95" cx="2" cy="38" r="2"></circle>
                    <circle id="Oval-Copy-98" cx="2" cy="26" r="2"></circle>
                    <circle id="Oval-Copy-97" cx="2" cy="14" r="2"></circle>
                    <circle id="Oval-Copy-96" cx="2" cy="2" r="2"></circle>
                </g>
                <g id="Group-13-Copy-37" transform="translate(1400.000000, 0.000000)">
                    <circle id="Oval-Copy-98" cx="2" cy="26" r="2"></circle>
                    <circle id="Oval-Copy-97" cx="2" cy="14" r="2"></circle>
                    <circle id="Oval-Copy-96" cx="2" cy="2" r="2"></circle>
                </g>
                <g id="Group-13-Copy-4" transform="translate(644.000000, 0.000000)">
                    <circle id="Oval-Copy-98" cx="2" cy="26" r="2"></circle>
                    <circle id="Oval-Copy-97" cx="2" cy="14" r="2"></circle>
                    <circle id="Oval-Copy-96" cx="2" cy="2" r="2"></circle>
                </g>
                <g id="Group-13-Copy-38" transform="translate(1064.000000, 0.000000)">
                    <circle id="Oval-Copy-98" cx="2" cy="26" r="2"></circle>
                    <circle id="Oval-Copy-97" cx="2" cy="14" r="2"></circle>
                    <circle id="Oval-Copy-96" cx="2" cy="2" r="2"></circle>
                </g>
                <g id="Group-13-Copy-29" transform="translate(868.000000, 0.000000)">
                    <circle id="Oval-Copy-99" cx="2" cy="50" r="2"></circle>
                    <circle id="Oval-Copy-95" cx="2" cy="38" r="2"></circle>
                    <circle id="Oval-Copy-98" cx="2" cy="26" r="2"></circle>
                    <circle id="Oval-Copy-97" cx="2" cy="14" r="2"></circle>
                    <circle id="Oval-Copy-96" cx="2" cy="2" r="2"></circle>
                </g>
                <g id="Group-13-Copy-39" transform="translate(1288.000000, 0.000000)">
                    <circle id="Oval-Copy-95" cx="2" cy="38" r="2"></circle>
                    <circle id="Oval-Copy-98" cx="2" cy="26" r="2"></circle>
                    <circle id="Oval-Copy-97" cx="2" cy="14" r="2"></circle>
                    <circle id="Oval-Copy-96" cx="2" cy="2" r="2"></circle>
                </g>
                <g id="Group-13-Copy" transform="translate(728.000000, 0.000000)">
                    <circle id="Oval-Copy-99" cx="2" cy="50" r="2"></circle>
                    <circle id="Oval-Copy-95" cx="2" cy="38" r="2"></circle>
                    <circle id="Oval-Copy-98" cx="2" cy="26" r="2"></circle>
                    <circle id="Oval-Copy-97" cx="2" cy="14" r="2"></circle>
                    <circle id="Oval-Copy-96" cx="2" cy="2" r="2"></circle>
                </g>
                <g id="Group-13-Copy-40" transform="translate(1148.000000, 0.000000)">
                    <circle id="Oval-Copy-97" cx="2" cy="14" r="2"></circle>
                    <circle id="Oval-Copy-96" cx="2" cy="2" r="2"></circle>
                </g>
                <g id="Group-13-Copy-30" transform="translate(952.000000, 0.000000)">
                    <circle id="Oval-Copy-95" cx="2" cy="38" r="2"></circle>
                    <circle id="Oval-Copy-98" cx="2" cy="26" r="2"></circle>
                    <circle id="Oval-Copy-97" cx="2" cy="14" r="2"></circle>
                    <circle id="Oval-Copy-96" cx="2" cy="2" r="2"></circle>
                </g>
                <g id="Group-13-Copy-41" transform="translate(1372.000000, 0.000000)">
                    <circle id="Oval-Copy-95" cx="2" cy="38" r="2"></circle>
                    <circle id="Oval-Copy-98" cx="2" cy="26" r="2"></circle>
                    <circle id="Oval-Copy-97" cx="2" cy="14" r="2"></circle>
                    <circle id="Oval-Copy-96" cx="2" cy="2" r="2"></circle>
                </g>
                <g id="Group-13-Copy-5" transform="translate(616.000000, 0.000000)">
                    <circle id="Oval-Copy-97" cx="2" cy="14" r="2"></circle>
                    <circle id="Oval-Copy-96" cx="2" cy="2" r="2"></circle>
                </g>
                <g id="Group-13-Copy-42" transform="translate(1036.000000, 0.000000)">
                    <circle id="Oval-Copy-98" cx="2" cy="26" r="2"></circle>
                    <circle id="Oval-Copy-97" cx="2" cy="14" r="2"></circle>
                    <circle id="Oval-Copy-96" cx="2" cy="2" r="2"></circle>
                </g>
                <g id="Group-13-Copy-31" transform="translate(840.000000, 0.000000)">
                    <circle id="Oval-Copy-99" cx="2" cy="50" r="2"></circle>
                    <circle id="Oval-Copy-95" cx="2" cy="38" r="2"></circle>
                    <circle id="Oval-Copy-98" cx="2" cy="26" r="2"></circle>
                    <circle id="Oval-Copy-97" cx="2" cy="14" r="2"></circle>
                    <circle id="Oval-Copy-96" cx="2" cy="2" r="2"></circle>
                </g>
                <g id="Group-13-Copy-43" transform="translate(1260.000000, 0.000000)">
                    <circle id="Oval-Copy-99" cx="2" cy="50" r="2"></circle>
                    <circle id="Oval-Copy-95" cx="2" cy="38" r="2"></circle>
                    <circle id="Oval-Copy-98" cx="2" cy="26" r="2"></circle>
                    <circle id="Oval-Copy-97" cx="2" cy="14" r="2"></circle>
                    <circle id="Oval-Copy-96" cx="2" cy="2" r="2"></circle>
                </g>
                <g id="Group-13-Copy-2" transform="translate(700.000000, 0.000000)">
                    <circle id="Oval-Copy-98" cx="2" cy="26" r="2"></circle>
                    <circle id="Oval-Copy-97" cx="2" cy="14" r="2"></circle>
                    <circle id="Oval-Copy-96" cx="2" cy="2" r="2"></circle>
                </g>
                <g id="Group-13-Copy-44" transform="translate(1120.000000, 0.000000)">
                    <circle id="Oval-Copy-99" cx="2" cy="50" r="2"></circle>
                    <circle id="Oval-Copy-95" cx="2" cy="38" r="2"></circle>
                    <circle id="Oval-Copy-98" cx="2" cy="26" r="2"></circle>
                    <circle id="Oval-Copy-97" cx="2" cy="14" r="2"></circle>
                    <circle id="Oval-Copy-96" cx="2" cy="2" r="2"></circle>
                </g>
                <g id="Group-13-Copy-32" transform="translate(924.000000, 0.000000)">
                    <circle id="Oval-Copy-95" cx="2" cy="38" r="2"></circle>
                    <circle id="Oval-Copy-98" cx="2" cy="26" r="2"></circle>
                    <circle id="Oval-Copy-97" cx="2" cy="14" r="2"></circle>
                    <circle id="Oval-Copy-96" cx="2" cy="2" r="2"></circle>
                </g>
                <g id="Group-13-Copy-45" transform="translate(1344.000000, 0.000000)">
                    <circle id="Oval-Copy-95" cx="2" cy="38" r="2"></circle>
                    <circle id="Oval-Copy-98" cx="2" cy="26" r="2"></circle>
                    <circle id="Oval-Copy-97" cx="2" cy="14" r="2"></circle>
                    <circle id="Oval-Copy-96" cx="2" cy="2" r="2"></circle>
                </g>
                <g id="Group-13-Copy-6" transform="translate(588.000000, 0.000000)">
                    <circle id="Oval-Copy-99" cx="2" cy="50" r="2"></circle>
                    <circle id="Oval-Copy-95" cx="2" cy="38" r="2"></circle>
                    <circle id="Oval-Copy-98" cx="2" cy="26" r="2"></circle>
                    <circle id="Oval-Copy-97" cx="2" cy="14" r="2"></circle>
                    <circle id="Oval-Copy-96" cx="2" cy="2" r="2"></circle>
                </g>
                <g id="Group-13-Copy-46" transform="translate(1008.000000, 0.000000)">
                    <circle id="Oval-Copy-97" cx="2" cy="14" r="2"></circle>
                    <circle id="Oval-Copy-96" cx="2" cy="2" r="2"></circle>
                </g>
                <g id="Group-13-Copy-33" transform="translate(812.000000, 0.000000)">
                    <circle id="Oval-Copy-97" cx="2" cy="14" r="2"></circle>
                    <circle id="Oval-Copy-96" cx="2" cy="2" r="2"></circle>
                </g>
                <g id="Group-13-Copy-47" transform="translate(1232.000000, 0.000000)">
                    <circle id="Oval-Copy-95" cx="2" cy="38" r="2"></circle>
                    <circle id="Oval-Copy-98" cx="2" cy="26" r="2"></circle>
                    <circle id="Oval-Copy-97" cx="2" cy="14" r="2"></circle>
                    <circle id="Oval-Copy-96" cx="2" cy="2" r="2"></circle>
                </g>
                <g id="Group-13-Copy-3" transform="translate(672.000000, 0.000000)">
                    <circle id="Oval-Copy-96" cx="2" cy="2" r="2"></circle>
                </g>
                <g id="Group-13-Copy-48" transform="translate(1092.000000, 0.000000)">
                    <circle id="Oval-Copy-95" cx="2" cy="38" r="2"></circle>
                    <circle id="Oval-Copy-98" cx="2" cy="26" r="2"></circle>
                    <circle id="Oval-Copy-97" cx="2" cy="14" r="2"></circle>
                    <circle id="Oval-Copy-96" cx="2" cy="2" r="2"></circle>
                </g>
                <g id="Group-13-Copy-34" transform="translate(896.000000, 0.000000)">
                    <circle id="Oval-Copy-98" cx="2" cy="26" r="2"></circle>
                    <circle id="Oval-Copy-97" cx="2" cy="14" r="2"></circle>
                    <circle id="Oval-Copy-96" cx="2" cy="2" r="2"></circle>
                </g>
                <g id="Group-13-Copy-49" transform="translate(1316.000000, 0.000000)">
                    <circle id="Oval-Copy-98" cx="2" cy="26" r="2"></circle>
                    <circle id="Oval-Copy-97" cx="2" cy="14" r="2"></circle>
                    <circle id="Oval-Copy-96" cx="2" cy="2" r="2"></circle>
                </g>
                <g id="Group-13-Copy-7" transform="translate(560.000000, 0.000000)">
                    <circle id="Oval-Copy-98" cx="2" cy="26" r="2"></circle>
                    <circle id="Oval-Copy-97" cx="2" cy="14" r="2"></circle>
                    <circle id="Oval-Copy-96" cx="2" cy="2" r="2"></circle>
                </g>
                <g id="Group-13-Copy-35" transform="translate(784.000000, 0.000000)">
                    <circle id="Oval-Copy-95" cx="2" cy="38" r="2"></circle>
                    <circle id="Oval-Copy-98" cx="2" cy="26" r="2"></circle>
                    <circle id="Oval-Copy-97" cx="2" cy="14" r="2"></circle>
                    <circle id="Oval-Copy-96" cx="2" cy="2" r="2"></circle>
                </g>
                <g id="Group-13-Copy-50" transform="translate(1204.000000, 0.000000)">
                    <circle id="Oval-Copy-98" cx="2" cy="26" r="2"></circle>
                    <circle id="Oval-Copy-97" cx="2" cy="14" r="2"></circle>
                    <circle id="Oval-Copy-96" cx="2" cy="2" r="2"></circle>
                </g>
                <g id="Group-13-Copy-11" transform="translate(532.000000, 0.000000)">
                    <circle id="Oval-Copy-99" cx="2" cy="50" r="2"></circle>
                    <circle id="Oval-Copy-95" cx="2" cy="38" r="2"></circle>
                    <circle id="Oval-Copy-98" cx="2" cy="26" r="2"></circle>
                    <circle id="Oval-Copy-97" cx="2" cy="14" r="2"></circle>
                    <circle id="Oval-Copy-96" cx="2" cy="2" r="2"></circle>
                </g>
                <g id="Group-13-Copy-10" transform="translate(504.000000, 0.000000)">
                    <circle id="Oval-Copy-99" cx="2" cy="50" r="2"></circle>
                    <circle id="Oval-Copy-95" cx="2" cy="38" r="2"></circle>
                    <circle id="Oval-Copy-98" cx="2" cy="26" r="2"></circle>
                    <circle id="Oval-Copy-97" cx="2" cy="14" r="2"></circle>
                    <circle id="Oval-Copy-96" cx="2" cy="2" r="2"></circle>
                </g>
                <g id="Group-13-Copy-9" transform="translate(476.000000, 0.000000)">
                    <circle id="Oval-Copy-95" cx="2" cy="38" r="2"></circle>
                    <circle id="Oval-Copy-98" cx="2" cy="26" r="2"></circle>
                    <circle id="Oval-Copy-97" cx="2" cy="14" r="2"></circle>
                    <circle id="Oval-Copy-96" cx="2" cy="2" r="2"></circle>
                </g>
                <g id="Group-13-Copy-8" transform="translate(448.000000, 0.000000)">
                    <circle id="Oval-Copy-98" cx="2" cy="26" r="2"></circle>
                    <circle id="Oval-Copy-97" cx="2" cy="14" r="2"></circle>
                    <circle id="Oval-Copy-96" cx="2" cy="2" r="2"></circle>
                </g>
                <g id="Group-13-Copy-15" transform="translate(420.000000, 0.000000)">
                    <circle id="Oval-Copy-98" cx="2" cy="26" r="2"></circle>
                    <circle id="Oval-Copy-97" cx="2" cy="14" r="2"></circle>
                    <circle id="Oval-Copy-96" cx="2" cy="2" r="2"></circle>
                </g>
                <g id="Group-13-Copy-14" transform="translate(392.000000, 0.000000)">
                    <circle id="Oval-Copy-99" cx="2" cy="50" r="2"></circle>
                    <circle id="Oval-Copy-95" cx="2" cy="38" r="2"></circle>
                    <circle id="Oval-Copy-98" cx="2" cy="26" r="2"></circle>
                    <circle id="Oval-Copy-97" cx="2" cy="14" r="2"></circle>
                    <circle id="Oval-Copy-96" cx="2" cy="2" r="2"></circle>
                </g>
                <g id="Group-13-Copy-13" transform="translate(364.000000, 0.000000)">
                    <circle id="Oval-Copy-97" cx="2" cy="14" r="2"></circle>
                    <circle id="Oval-Copy-96" cx="2" cy="2" r="2"></circle>
                </g>
                <g id="Group-13-Copy-12" transform="translate(336.000000, 0.000000)">
                    <circle id="Oval-Copy-98" cx="2" cy="26" r="2"></circle>
                    <circle id="Oval-Copy-97" cx="2" cy="14" r="2"></circle>
                    <circle id="Oval-Copy-96" cx="2" cy="2" r="2"></circle>
                </g>
                <g id="Group-13-Copy-19" transform="translate(308.000000, 0.000000)">
                    <circle id="Oval-Copy-99" cx="2" cy="50" r="2"></circle>
                    <circle id="Oval-Copy-95" cx="2" cy="38" r="2"></circle>
                    <circle id="Oval-Copy-98" cx="2" cy="26" r="2"></circle>
                    <circle id="Oval-Copy-97" cx="2" cy="14" r="2"></circle>
                    <circle id="Oval-Copy-96" cx="2" cy="2" r="2"></circle>
                </g>
                <g id="Group-13-Copy-18" transform="translate(280.000000, 0.000000)">
                    <circle id="Oval-Copy-95" cx="2" cy="38" r="2"></circle>
                    <circle id="Oval-Copy-98" cx="2" cy="26" r="2"></circle>
                    <circle id="Oval-Copy-97" cx="2" cy="14" r="2"></circle>
                    <circle id="Oval-Copy-96" cx="2" cy="2" r="2"></circle>
                </g>
                <g id="Group-13-Copy-17" transform="translate(252.000000, 0.000000)">
                    <circle id="Oval-Copy-98" cx="2" cy="26" r="2"></circle>
                    <circle id="Oval-Copy-97" cx="2" cy="14" r="2"></circle>
                    <circle id="Oval-Copy-96" cx="2" cy="2" r="2"></circle>
                </g>
                <g id="Group-13-Copy-16" transform="translate(224.000000, 0.000000)">
                    <circle id="Oval-Copy-99" cx="2" cy="50" r="2"></circle>
                    <circle id="Oval-Copy-95" cx="2" cy="38" r="2"></circle>
                    <circle id="Oval-Copy-98" cx="2" cy="26" r="2"></circle>
                    <circle id="Oval-Copy-97" cx="2" cy="14" r="2"></circle>
                    <circle id="Oval-Copy-96" cx="2" cy="2" r="2"></circle>
                </g>
                <g id="Group-13-Copy-23" transform="translate(196.000000, 0.000000)">
                    <circle id="Oval-Copy-97" cx="2" cy="14" r="2"></circle>
                    <circle id="Oval-Copy-96" cx="2" cy="2" r="2"></circle>
                </g>
                <g id="Group-13-Copy-22" transform="translate(168.000000, 0.000000)">
                    <circle id="Oval-Copy-98" cx="2" cy="26" r="2"></circle>
                    <circle id="Oval-Copy-97" cx="2" cy="14" r="2"></circle>
                    <circle id="Oval-Copy-96" cx="2" cy="2" r="2"></circle>
                </g>
                <g id="Group-13-Copy-21" transform="translate(140.000000, 0.000000)">
                    <circle id="Oval-Copy-95" cx="2" cy="38" r="2"></circle>
                    <circle id="Oval-Copy-98" cx="2" cy="26" r="2"></circle>
                    <circle id="Oval-Copy-97" cx="2" cy="14" r="2"></circle>
                    <circle id="Oval-Copy-96" cx="2" cy="2" r="2"></circle>
                </g>
                <g id="Group-13-Copy-20" transform="translate(112.000000, 0.000000)">
                    <circle id="Oval-Copy-99" cx="2" cy="50" r="2"></circle>
                    <circle id="Oval-Copy-95" cx="2" cy="38" r="2"></circle>
                    <circle id="Oval-Copy-98" cx="2" cy="26" r="2"></circle>
                    <circle id="Oval-Copy-97" cx="2" cy="14" r="2"></circle>
                    <circle id="Oval-Copy-96" cx="2" cy="2" r="2"></circle>
                </g>
                <g id="Group-13-Copy-27" transform="translate(84.000000, 0.000000)">
                    <circle id="Oval-Copy-99" cx="2" cy="50" r="2"></circle>
                    <circle id="Oval-Copy-95" cx="2" cy="38" r="2"></circle>
                    <circle id="Oval-Copy-98" cx="2" cy="26" r="2"></circle>
                    <circle id="Oval-Copy-97" cx="2" cy="14" r="2"></circle>
                    <circle id="Oval-Copy-96" cx="2" cy="2" r="2"></circle>
                </g>
                <g id="Group-13-Copy-26" transform="translate(56.000000, 0.000000)">
                    <circle id="Oval-Copy-98" cx="2" cy="26" r="2"></circle>
                    <circle id="Oval-Copy-97" cx="2" cy="14" r="2"></circle>
                    <circle id="Oval-Copy-96" cx="2" cy="2" r="2"></circle>
                </g>
                <g id="Group-13-Copy-25" transform="translate(28.000000, 0.000000)">
                    <circle id="Oval-Copy-97" cx="2" cy="14" r="2"></circle>
                    <circle id="Oval-Copy-96" cx="2" cy="2" r="2"></circle>
                </g>
                <g id="Group-13-Copy-24">
                    <circle id="Oval-Copy-99" cx="2" cy="50" r="2"></circle>
                    <circle id="Oval-Copy-95" cx="2" cy="38" r="2"></circle>
                    <circle id="Oval-Copy-98" cx="2" cy="26" r="2"></circle>
                    <circle id="Oval-Copy-97" cx="2" cy="14" r="2"></circle>
                    <circle id="Oval-Copy-96" cx="2" cy="2" r="2"></circle>
                </g>
            </g>
            <g id="circle-graphic-copy" transform="translate(1430.000000, 0.000000)">
                <g id="Group-13" transform="translate(756.000000, 0.000000)">
                    <circle id="Oval-Copy-95" cx="2" cy="38" r="2"></circle>
                    <circle id="Oval-Copy-98" cx="2" cy="26" r="2"></circle>
                    <circle id="Oval-Copy-97" cx="2" cy="14" r="2"></circle>
                    <circle id="Oval-Copy-96" cx="2" cy="2" r="2"></circle>
                </g>
                <g id="Group-13-Copy-36" transform="translate(1176.000000, 0.000000)">
                    <circle id="Oval-Copy-95" cx="2" cy="38" r="2"></circle>
                    <circle id="Oval-Copy-98" cx="2" cy="26" r="2"></circle>
                    <circle id="Oval-Copy-97" cx="2" cy="14" r="2"></circle>
                    <circle id="Oval-Copy-96" cx="2" cy="2" r="2"></circle>
                </g>
                <g id="Group-13-Copy-28" transform="translate(980.000000, 0.000000)">
                    <circle id="Oval-Copy-99" cx="2" cy="50" r="2"></circle>
                    <circle id="Oval-Copy-95" cx="2" cy="38" r="2"></circle>
                    <circle id="Oval-Copy-98" cx="2" cy="26" r="2"></circle>
                    <circle id="Oval-Copy-97" cx="2" cy="14" r="2"></circle>
                    <circle id="Oval-Copy-96" cx="2" cy="2" r="2"></circle>
                </g>
                <g id="Group-13-Copy-37" transform="translate(1400.000000, 0.000000)">
                    <circle id="Oval-Copy-98" cx="2" cy="26" r="2"></circle>
                    <circle id="Oval-Copy-97" cx="2" cy="14" r="2"></circle>
                    <circle id="Oval-Copy-96" cx="2" cy="2" r="2"></circle>
                </g>
                <g id="Group-13-Copy-4" transform="translate(644.000000, 0.000000)">
                    <circle id="Oval-Copy-98" cx="2" cy="26" r="2"></circle>
                    <circle id="Oval-Copy-97" cx="2" cy="14" r="2"></circle>
                    <circle id="Oval-Copy-96" cx="2" cy="2" r="2"></circle>
                </g>
                <g id="Group-13-Copy-38" transform="translate(1064.000000, 0.000000)">
                    <circle id="Oval-Copy-98" cx="2" cy="26" r="2"></circle>
                    <circle id="Oval-Copy-97" cx="2" cy="14" r="2"></circle>
                    <circle id="Oval-Copy-96" cx="2" cy="2" r="2"></circle>
                </g>
                <g id="Group-13-Copy-29" transform="translate(868.000000, 0.000000)">
                    <circle id="Oval-Copy-99" cx="2" cy="50" r="2"></circle>
                    <circle id="Oval-Copy-95" cx="2" cy="38" r="2"></circle>
                    <circle id="Oval-Copy-98" cx="2" cy="26" r="2"></circle>
                    <circle id="Oval-Copy-97" cx="2" cy="14" r="2"></circle>
                    <circle id="Oval-Copy-96" cx="2" cy="2" r="2"></circle>
                </g>
                <g id="Group-13-Copy-39" transform="translate(1288.000000, 0.000000)">
                    <circle id="Oval-Copy-95" cx="2" cy="38" r="2"></circle>
                    <circle id="Oval-Copy-98" cx="2" cy="26" r="2"></circle>
                    <circle id="Oval-Copy-97" cx="2" cy="14" r="2"></circle>
                    <circle id="Oval-Copy-96" cx="2" cy="2" r="2"></circle>
                </g>
                <g id="Group-13-Copy" transform="translate(728.000000, 0.000000)">
                    <circle id="Oval-Copy-99" cx="2" cy="50" r="2"></circle>
                    <circle id="Oval-Copy-95" cx="2" cy="38" r="2"></circle>
                    <circle id="Oval-Copy-98" cx="2" cy="26" r="2"></circle>
                    <circle id="Oval-Copy-97" cx="2" cy="14" r="2"></circle>
                    <circle id="Oval-Copy-96" cx="2" cy="2" r="2"></circle>
                </g>
                <g id="Group-13-Copy-40" transform="translate(1148.000000, 0.000000)">
                    <circle id="Oval-Copy-97" cx="2" cy="14" r="2"></circle>
                    <circle id="Oval-Copy-96" cx="2" cy="2" r="2"></circle>
                </g>
                <g id="Group-13-Copy-30" transform="translate(952.000000, 0.000000)">
                    <circle id="Oval-Copy-95" cx="2" cy="38" r="2"></circle>
                    <circle id="Oval-Copy-98" cx="2" cy="26" r="2"></circle>
                    <circle id="Oval-Copy-97" cx="2" cy="14" r="2"></circle>
                    <circle id="Oval-Copy-96" cx="2" cy="2" r="2"></circle>
                </g>
                <g id="Group-13-Copy-41" transform="translate(1372.000000, 0.000000)">
                    <circle id="Oval-Copy-95" cx="2" cy="38" r="2"></circle>
                    <circle id="Oval-Copy-98" cx="2" cy="26" r="2"></circle>
                    <circle id="Oval-Copy-97" cx="2" cy="14" r="2"></circle>
                    <circle id="Oval-Copy-96" cx="2" cy="2" r="2"></circle>
                </g>
                <g id="Group-13-Copy-5" transform="translate(616.000000, 0.000000)">
                    <circle id="Oval-Copy-97" cx="2" cy="14" r="2"></circle>
                    <circle id="Oval-Copy-96" cx="2" cy="2" r="2"></circle>
                </g>
                <g id="Group-13-Copy-42" transform="translate(1036.000000, 0.000000)">
                    <circle id="Oval-Copy-98" cx="2" cy="26" r="2"></circle>
                    <circle id="Oval-Copy-97" cx="2" cy="14" r="2"></circle>
                    <circle id="Oval-Copy-96" cx="2" cy="2" r="2"></circle>
                </g>
                <g id="Group-13-Copy-31" transform="translate(840.000000, 0.000000)">
                    <circle id="Oval-Copy-99" cx="2" cy="50" r="2"></circle>
                    <circle id="Oval-Copy-95" cx="2" cy="38" r="2"></circle>
                    <circle id="Oval-Copy-98" cx="2" cy="26" r="2"></circle>
                    <circle id="Oval-Copy-97" cx="2" cy="14" r="2"></circle>
                    <circle id="Oval-Copy-96" cx="2" cy="2" r="2"></circle>
                </g>
                <g id="Group-13-Copy-43" transform="translate(1260.000000, 0.000000)">
                    <circle id="Oval-Copy-99" cx="2" cy="50" r="2"></circle>
                    <circle id="Oval-Copy-95" cx="2" cy="38" r="2"></circle>
                    <circle id="Oval-Copy-98" cx="2" cy="26" r="2"></circle>
                    <circle id="Oval-Copy-97" cx="2" cy="14" r="2"></circle>
                    <circle id="Oval-Copy-96" cx="2" cy="2" r="2"></circle>
                </g>
                <g id="Group-13-Copy-2" transform="translate(700.000000, 0.000000)">
                    <circle id="Oval-Copy-98" cx="2" cy="26" r="2"></circle>
                    <circle id="Oval-Copy-97" cx="2" cy="14" r="2"></circle>
                    <circle id="Oval-Copy-96" cx="2" cy="2" r="2"></circle>
                </g>
                <g id="Group-13-Copy-44" transform="translate(1120.000000, 0.000000)">
                    <circle id="Oval-Copy-99" cx="2" cy="50" r="2"></circle>
                    <circle id="Oval-Copy-95" cx="2" cy="38" r="2"></circle>
                    <circle id="Oval-Copy-98" cx="2" cy="26" r="2"></circle>
                    <circle id="Oval-Copy-97" cx="2" cy="14" r="2"></circle>
                    <circle id="Oval-Copy-96" cx="2" cy="2" r="2"></circle>
                </g>
                <g id="Group-13-Copy-32" transform="translate(924.000000, 0.000000)">
                    <circle id="Oval-Copy-95" cx="2" cy="38" r="2"></circle>
                    <circle id="Oval-Copy-98" cx="2" cy="26" r="2"></circle>
                    <circle id="Oval-Copy-97" cx="2" cy="14" r="2"></circle>
                    <circle id="Oval-Copy-96" cx="2" cy="2" r="2"></circle>
                </g>
                <g id="Group-13-Copy-45" transform="translate(1344.000000, 0.000000)">
                    <circle id="Oval-Copy-95" cx="2" cy="38" r="2"></circle>
                    <circle id="Oval-Copy-98" cx="2" cy="26" r="2"></circle>
                    <circle id="Oval-Copy-97" cx="2" cy="14" r="2"></circle>
                    <circle id="Oval-Copy-96" cx="2" cy="2" r="2"></circle>
                </g>
                <g id="Group-13-Copy-6" transform="translate(588.000000, 0.000000)">
                    <circle id="Oval-Copy-99" cx="2" cy="50" r="2"></circle>
                    <circle id="Oval-Copy-95" cx="2" cy="38" r="2"></circle>
                    <circle id="Oval-Copy-98" cx="2" cy="26" r="2"></circle>
                    <circle id="Oval-Copy-97" cx="2" cy="14" r="2"></circle>
                    <circle id="Oval-Copy-96" cx="2" cy="2" r="2"></circle>
                </g>
                <g id="Group-13-Copy-46" transform="translate(1008.000000, 0.000000)">
                    <circle id="Oval-Copy-97" cx="2" cy="14" r="2"></circle>
                    <circle id="Oval-Copy-96" cx="2" cy="2" r="2"></circle>
                </g>
                <g id="Group-13-Copy-33" transform="translate(812.000000, 0.000000)">
                    <circle id="Oval-Copy-97" cx="2" cy="14" r="2"></circle>
                    <circle id="Oval-Copy-96" cx="2" cy="2" r="2"></circle>
                </g>
                <g id="Group-13-Copy-47" transform="translate(1232.000000, 0.000000)">
                    <circle id="Oval-Copy-95" cx="2" cy="38" r="2"></circle>
                    <circle id="Oval-Copy-98" cx="2" cy="26" r="2"></circle>
                    <circle id="Oval-Copy-97" cx="2" cy="14" r="2"></circle>
                    <circle id="Oval-Copy-96" cx="2" cy="2" r="2"></circle>
                </g>
                <g id="Group-13-Copy-3" transform="translate(672.000000, 0.000000)">
                    <circle id="Oval-Copy-96" cx="2" cy="2" r="2"></circle>
                </g>
                <g id="Group-13-Copy-48" transform="translate(1092.000000, 0.000000)">
                    <circle id="Oval-Copy-95" cx="2" cy="38" r="2"></circle>
                    <circle id="Oval-Copy-98" cx="2" cy="26" r="2"></circle>
                    <circle id="Oval-Copy-97" cx="2" cy="14" r="2"></circle>
                    <circle id="Oval-Copy-96" cx="2" cy="2" r="2"></circle>
                </g>
                <g id="Group-13-Copy-34" transform="translate(896.000000, 0.000000)">
                    <circle id="Oval-Copy-98" cx="2" cy="26" r="2"></circle>
                    <circle id="Oval-Copy-97" cx="2" cy="14" r="2"></circle>
                    <circle id="Oval-Copy-96" cx="2" cy="2" r="2"></circle>
                </g>
                <g id="Group-13-Copy-49" transform="translate(1316.000000, 0.000000)">
                    <circle id="Oval-Copy-98" cx="2" cy="26" r="2"></circle>
                    <circle id="Oval-Copy-97" cx="2" cy="14" r="2"></circle>
                    <circle id="Oval-Copy-96" cx="2" cy="2" r="2"></circle>
                </g>
                <g id="Group-13-Copy-7" transform="translate(560.000000, 0.000000)">
                    <circle id="Oval-Copy-98" cx="2" cy="26" r="2"></circle>
                    <circle id="Oval-Copy-97" cx="2" cy="14" r="2"></circle>
                    <circle id="Oval-Copy-96" cx="2" cy="2" r="2"></circle>
                </g>
                <g id="Group-13-Copy-35" transform="translate(784.000000, 0.000000)">
                    <circle id="Oval-Copy-95" cx="2" cy="38" r="2"></circle>
                    <circle id="Oval-Copy-98" cx="2" cy="26" r="2"></circle>
                    <circle id="Oval-Copy-97" cx="2" cy="14" r="2"></circle>
                    <circle id="Oval-Copy-96" cx="2" cy="2" r="2"></circle>
                </g>
                <g id="Group-13-Copy-50" transform="translate(1204.000000, 0.000000)">
                    <circle id="Oval-Copy-98" cx="2" cy="26" r="2"></circle>
                    <circle id="Oval-Copy-97" cx="2" cy="14" r="2"></circle>
                    <circle id="Oval-Copy-96" cx="2" cy="2" r="2"></circle>
                </g>
                <g id="Group-13-Copy-11" transform="translate(532.000000, 0.000000)">
                    <circle id="Oval-Copy-99" cx="2" cy="50" r="2"></circle>
                    <circle id="Oval-Copy-95" cx="2" cy="38" r="2"></circle>
                    <circle id="Oval-Copy-98" cx="2" cy="26" r="2"></circle>
                    <circle id="Oval-Copy-97" cx="2" cy="14" r="2"></circle>
                    <circle id="Oval-Copy-96" cx="2" cy="2" r="2"></circle>
                </g>
                <g id="Group-13-Copy-10" transform="translate(504.000000, 0.000000)">
                    <circle id="Oval-Copy-99" cx="2" cy="50" r="2"></circle>
                    <circle id="Oval-Copy-95" cx="2" cy="38" r="2"></circle>
                    <circle id="Oval-Copy-98" cx="2" cy="26" r="2"></circle>
                    <circle id="Oval-Copy-97" cx="2" cy="14" r="2"></circle>
                    <circle id="Oval-Copy-96" cx="2" cy="2" r="2"></circle>
                </g>
                <g id="Group-13-Copy-9" transform="translate(476.000000, 0.000000)">
                    <circle id="Oval-Copy-95" cx="2" cy="38" r="2"></circle>
                    <circle id="Oval-Copy-98" cx="2" cy="26" r="2"></circle>
                    <circle id="Oval-Copy-97" cx="2" cy="14" r="2"></circle>
                    <circle id="Oval-Copy-96" cx="2" cy="2" r="2"></circle>
                </g>
                <g id="Group-13-Copy-8" transform="translate(448.000000, 0.000000)">
                    <circle id="Oval-Copy-98" cx="2" cy="26" r="2"></circle>
                    <circle id="Oval-Copy-97" cx="2" cy="14" r="2"></circle>
                    <circle id="Oval-Copy-96" cx="2" cy="2" r="2"></circle>
                </g>
                <g id="Group-13-Copy-15" transform="translate(420.000000, 0.000000)">
                    <circle id="Oval-Copy-98" cx="2" cy="26" r="2"></circle>
                    <circle id="Oval-Copy-97" cx="2" cy="14" r="2"></circle>
                    <circle id="Oval-Copy-96" cx="2" cy="2" r="2"></circle>
                </g>
                <g id="Group-13-Copy-14" transform="translate(392.000000, 0.000000)">
                    <circle id="Oval-Copy-99" cx="2" cy="50" r="2"></circle>
                    <circle id="Oval-Copy-95" cx="2" cy="38" r="2"></circle>
                    <circle id="Oval-Copy-98" cx="2" cy="26" r="2"></circle>
                    <circle id="Oval-Copy-97" cx="2" cy="14" r="2"></circle>
                    <circle id="Oval-Copy-96" cx="2" cy="2" r="2"></circle>
                </g>
                <g id="Group-13-Copy-13" transform="translate(364.000000, 0.000000)">
                    <circle id="Oval-Copy-97" cx="2" cy="14" r="2"></circle>
                    <circle id="Oval-Copy-96" cx="2" cy="2" r="2"></circle>
                </g>
                <g id="Group-13-Copy-12" transform="translate(336.000000, 0.000000)">
                    <circle id="Oval-Copy-98" cx="2" cy="26" r="2"></circle>
                    <circle id="Oval-Copy-97" cx="2" cy="14" r="2"></circle>
                    <circle id="Oval-Copy-96" cx="2" cy="2" r="2"></circle>
                </g>
                <g id="Group-13-Copy-19" transform="translate(308.000000, 0.000000)">
                    <circle id="Oval-Copy-99" cx="2" cy="50" r="2"></circle>
                    <circle id="Oval-Copy-95" cx="2" cy="38" r="2"></circle>
                    <circle id="Oval-Copy-98" cx="2" cy="26" r="2"></circle>
                    <circle id="Oval-Copy-97" cx="2" cy="14" r="2"></circle>
                    <circle id="Oval-Copy-96" cx="2" cy="2" r="2"></circle>
                </g>
                <g id="Group-13-Copy-18" transform="translate(280.000000, 0.000000)">
                    <circle id="Oval-Copy-95" cx="2" cy="38" r="2"></circle>
                    <circle id="Oval-Copy-98" cx="2" cy="26" r="2"></circle>
                    <circle id="Oval-Copy-97" cx="2" cy="14" r="2"></circle>
                    <circle id="Oval-Copy-96" cx="2" cy="2" r="2"></circle>
                </g>
                <g id="Group-13-Copy-17" transform="translate(252.000000, 0.000000)">
                    <circle id="Oval-Copy-98" cx="2" cy="26" r="2"></circle>
                    <circle id="Oval-Copy-97" cx="2" cy="14" r="2"></circle>
                    <circle id="Oval-Copy-96" cx="2" cy="2" r="2"></circle>
                </g>
                <g id="Group-13-Copy-16" transform="translate(224.000000, 0.000000)">
                    <circle id="Oval-Copy-99" cx="2" cy="50" r="2"></circle>
                    <circle id="Oval-Copy-95" cx="2" cy="38" r="2"></circle>
                    <circle id="Oval-Copy-98" cx="2" cy="26" r="2"></circle>
                    <circle id="Oval-Copy-97" cx="2" cy="14" r="2"></circle>
                    <circle id="Oval-Copy-96" cx="2" cy="2" r="2"></circle>
                </g>
                <g id="Group-13-Copy-23" transform="translate(196.000000, 0.000000)">
                    <circle id="Oval-Copy-97" cx="2" cy="14" r="2"></circle>
                    <circle id="Oval-Copy-96" cx="2" cy="2" r="2"></circle>
                </g>
                <g id="Group-13-Copy-22" transform="translate(168.000000, 0.000000)">
                    <circle id="Oval-Copy-98" cx="2" cy="26" r="2"></circle>
                    <circle id="Oval-Copy-97" cx="2" cy="14" r="2"></circle>
                    <circle id="Oval-Copy-96" cx="2" cy="2" r="2"></circle>
                </g>
                <g id="Group-13-Copy-21" transform="translate(140.000000, 0.000000)">
                    <circle id="Oval-Copy-95" cx="2" cy="38" r="2"></circle>
                    <circle id="Oval-Copy-98" cx="2" cy="26" r="2"></circle>
                    <circle id="Oval-Copy-97" cx="2" cy="14" r="2"></circle>
                    <circle id="Oval-Copy-96" cx="2" cy="2" r="2"></circle>
                </g>
                <g id="Group-13-Copy-20" transform="translate(112.000000, 0.000000)">
                    <circle id="Oval-Copy-99" cx="2" cy="50" r="2"></circle>
                    <circle id="Oval-Copy-95" cx="2" cy="38" r="2"></circle>
                    <circle id="Oval-Copy-98" cx="2" cy="26" r="2"></circle>
                    <circle id="Oval-Copy-97" cx="2" cy="14" r="2"></circle>
                    <circle id="Oval-Copy-96" cx="2" cy="2" r="2"></circle>
                </g>
                <g id="Group-13-Copy-27" transform="translate(84.000000, 0.000000)">
                    <circle id="Oval-Copy-99" cx="2" cy="50" r="2"></circle>
                    <circle id="Oval-Copy-95" cx="2" cy="38" r="2"></circle>
                    <circle id="Oval-Copy-98" cx="2" cy="26" r="2"></circle>
                    <circle id="Oval-Copy-97" cx="2" cy="14" r="2"></circle>
                    <circle id="Oval-Copy-96" cx="2" cy="2" r="2"></circle>
                </g>
                <g id="Group-13-Copy-26" transform="translate(56.000000, 0.000000)">
                    <circle id="Oval-Copy-98" cx="2" cy="26" r="2"></circle>
                    <circle id="Oval-Copy-97" cx="2" cy="14" r="2"></circle>
                    <circle id="Oval-Copy-96" cx="2" cy="2" r="2"></circle>
                </g>
                <g id="Group-13-Copy-25" transform="translate(28.000000, 0.000000)">
                    <circle id="Oval-Copy-97" cx="2" cy="14" r="2"></circle>
                    <circle id="Oval-Copy-96" cx="2" cy="2" r="2"></circle>
                </g>
                <g id="Group-13-Copy-24">
                    <circle id="Oval-Copy-99" cx="2" cy="50" r="2"></circle>
                    <circle id="Oval-Copy-95" cx="2" cy="38" r="2"></circle>
                    <circle id="Oval-Copy-98" cx="2" cy="26" r="2"></circle>
                    <circle id="Oval-Copy-97" cx="2" cy="14" r="2"></circle>
                    <circle id="Oval-Copy-96" cx="2" cy="2" r="2"></circle>
                </g>
            </g>
        </g>
    </g>
</svg>