<svg xmlns="http://www.w3.org/2000/svg" width="160" height="46" viewBox="0 0 160 46">
  <g fill="none" fill-rule="evenodd">
    <path fill="#203340" d="M58.0040764,32.3059413 L58.0040764,6.41383492 C58.0040764,5.3191319 57.3382812,4.74798249 55.9591341,4.74798249 C54.579987,4.74798249 53.9617486,5.3191319 53.9617486,6.41383492 L53.9617486,33.8290064 C53.9617486,35.3044757 54.579987,35.9232209 56.0542477,35.9232209 L69.1799236,35.9232209 C70.2737299,35.9232209 70.8444115,35.3044757 70.8444115,34.1145811 C70.8444115,32.8770907 70.2737299,32.3059413 69.1799236,32.3059413 L58.0040764,32.3059413 Z M79.8802029,7.6513253 C79.8802029,6.17585601 78.7863966,5.08115298 77.2645791,5.08115298 C75.7427616,5.08115298 74.6489552,6.17585601 74.6489552,7.6513253 C74.6489552,9.17439038 75.7427616,10.2690934 77.2645791,10.2690934 C78.7863966,10.2690934 79.8802029,9.17439038 79.8802029,7.6513253 Z M79.2619645,16.313758 C79.2619645,15.2190549 78.5961694,14.6479055 77.2170223,14.6479055 C75.885432,14.6479055 75.2671936,15.2190549 75.2671936,16.313758 L75.2671936,34.4953474 C75.2671936,35.5900504 75.9329887,36.1611998 77.3121359,36.1611998 C78.6437262,36.1611998 79.2619645,35.5900504 79.2619645,34.4953474 L79.2619645,16.313758 Z M94.1947987,31.4492172 L88.2026423,16.4565453 C87.6795176,15.0762676 87.2515064,14.6479055 85.7772457,14.6479055 C84.4456554,14.6479055 83.9700874,15.1238634 83.9700874,15.7902043 C83.9700874,16.2185664 84.1127578,16.74212 84.302985,17.2656736 L91.3413909,34.2097727 C91.9120725,35.5900504 92.3400836,36.1611998 94.0996851,36.1611998 C95.6690594,36.1611998 96.239741,35.6852419 96.8579793,34.2097727 L104.039056,17.2656736 C104.229283,16.74212 104.371953,16.2185664 104.371953,15.7902043 C104.371953,15.1238634 103.896385,14.6479055 102.564795,14.6479055 C101.185648,14.6479055 100.757637,15.0762676 100.234512,16.4565453 L94.1947987,31.4492172 Z M124.01291,30.8780678 C123.537342,30.8780678 123.061774,31.2112383 122.348422,31.6871961 C121.064389,32.5439202 119.542571,32.8770907 117.973197,32.8770907 C113.978426,32.8770907 111.933484,30.4497057 111.55303,26.5468515 L123.680013,26.5468515 C125.249387,26.5468515 126.152966,26.2612768 126.152966,23.7387002 C126.152966,18.3603767 122.633763,14.4099266 117.164732,14.4099266 C111.315246,14.4099266 107.605815,18.7887387 107.605815,25.4521484 C107.605815,32.1631539 111.410359,36.3039871 117.78297,36.3039871 C120.398594,36.3039871 122.586206,35.6852419 124.345808,34.4953474 C125.296944,33.8766022 125.724955,33.3054528 125.724955,32.6391118 C125.724955,31.8775792 125.154273,30.8780678 124.01291,30.8780678 Z M117.069618,17.5988441 C120.446151,17.5988441 122.253309,20.0738249 122.253309,23.5483171 L111.600586,23.5483171 C111.981041,19.835846 113.930869,17.5988441 117.069618,17.5988441 Z M135.521655,5.08115298 C135.521655,3.98644995 134.85586,3.41530055 133.476713,3.41530055 C132.145123,3.41530055 131.526884,3.98644995 131.526884,5.08115298 L131.526884,34.4953474 C131.526884,35.5900504 132.192679,36.1611998 133.571826,36.1611998 C134.903417,36.1611998 135.521655,35.5900504 135.521655,34.4953474 L135.521655,5.08115298 Z M158.206247,14.6479055 C156.494202,14.6479055 156.256419,15.4570338 156.018635,16.6945242 C155.257726,20.4545911 152.784772,27.5463629 150.644716,31.6871961 L144.50989,16.4089495 C144.034322,15.2190549 143.653867,14.6479055 141.989379,14.6479055 C140.610232,14.6479055 140.134664,15.1714591 140.134664,15.8853959 C140.134664,16.313758 140.324892,16.7897158 140.562676,17.2656736 L148.314433,35.6376462 C147.553525,37.0179239 145.793923,39.5405004 143.606311,41.6823107 C143.035629,42.3010559 142.464947,42.8722053 142.464947,43.5861421 C142.464947,44.6332493 143.558754,45.4423776 144.557447,45.4423776 C145.365912,45.4423776 145.98415,44.9664198 146.982843,43.7765252 C152.356761,37.874648 157.445338,26.4992557 159.490281,18.6459514 C159.775621,17.5512483 159.965849,16.5517369 159.965849,15.9805875 C159.965849,15.2190549 159.585394,14.6479055 158.206247,14.6479055 Z"/>
    <path fill="#C30B55" d="M27.0576375,24.1701653 C26.9433275,24.1701653 26.8506609,24.0839993 26.8506609,23.966951 L26.8506609,21.5804031 C26.8506609,18.3389315 24.1951326,15.7007891 20.9287753,15.7007891 L9.07640093,15.7007891 C5.81004369,15.7007891 3.15451533,18.3389315 3.15451533,21.5804031 C3.15451533,24.8218747 5.81004369,27.460017 9.07640093,27.460017 L14.3240485,27.460017 C14.6995875,27.460017 15.004022,27.7596713 15.004022,28.1459905 L15.004022,33.339631 C15.004022,34.9048719 15.6205864,36.3790442 16.7447409,37.4917882 C17.8660277,38.6073781 19.3515177,39.219245 20.9287753,39.219245 C24.1951326,39.219245 26.8506609,36.5811026 26.8506609,33.339631 L26.8506609,32.4690014 C26.8506609,32.3541462 26.9416675,32.2610377 27.0576375,32.2610377 L29.7981997,32.2610377 C29.9125097,32.2610377 30.0051763,32.352998 30.0051763,32.4690014 L30.0051763,33.339631 C30.0051763,38.3085594 25.9329838,42.3497268 20.9287753,42.3497268 C18.5112695,42.3497268 16.2314152,41.4105822 14.5136383,39.7058926 C12.7958613,38.001203 11.8495067,35.7415643 11.8495067,33.339631 L11.8495067,30.5904988 L9.07640093,30.5904988 C4.07219252,30.5904988 0,26.5493314 0,21.5804031 C0,16.6143206 4.07219252,12.5703073 9.07640093,12.5703073 L20.9287753,12.5703073 C25.9329838,12.5703073 30.0051763,16.6143206 30.0051763,21.5804031 L30.0051763,23.966951 C30.0051763,24.0791831 29.9141698,24.1701653 29.7981997,24.1701653 L27.0576375,24.1701653 Z M34.6394461,29.7794195 L22.7870716,29.7794195 C17.7828632,29.7794195 13.7106707,25.7382521 13.7106707,20.7693237 L13.7106707,18.3853984 C13.7106707,18.2732895 13.8016772,18.1824074 13.9176473,18.1824074 L16.6582095,18.1824074 C16.7725195,18.1824074 16.8651861,18.2684787 16.8651861,18.3853984 L16.8651861,20.7693237 C16.8651861,24.0107953 19.5235822,26.6489377 22.7870716,26.6489377 L34.6394461,26.6489377 C37.9058033,26.6489377 40.5613317,24.0107953 40.5613317,20.7693237 C40.5613317,17.5278521 37.9058033,14.8897097 34.6394461,14.8897097 L29.3917985,14.8897097 C29.0162595,14.8897097 28.711825,14.5900555 28.711825,14.2037362 L28.711825,9.01009576 C28.711825,7.44770076 28.0952606,5.97068253 26.9739738,4.85793855 C25.8498193,3.74519457 24.3643293,3.13048179 22.7870716,3.13048179 C19.5235822,3.13048179 16.8651861,5.76862416 16.8651861,9.01009576 L16.8651861,9.88302257 C16.8651861,9.99818076 16.7741795,10.0915349 16.6582095,10.0915349 L13.9176473,10.0915349 C13.8033373,10.0915349 13.7106707,9.99933203 13.7106707,9.88302257 L13.7106707,9.01009576 C13.7106707,4.0411674 17.7828632,0 22.7870716,0 C25.2074452,0 27.4844317,0.939144536 29.2022087,2.64383416 C30.9199857,4.34852379 31.8663403,6.61100835 31.8663403,9.01009576 L31.8663403,11.7592279 L34.6394461,11.7592279 C39.6465222,11.7592279 43.715847,15.8003953 43.715847,20.7693237 C43.715847,25.7382521 39.6465222,29.7794195 34.6394461,29.7794195 Z"/>
  </g>
</svg>
