<?xml version="1.0" encoding="UTF-8"?>
<svg width="191px" height="77px" viewBox="0 0 191 77" version="1.1" xmlns="http://www.w3.org/2000/svg" xmlns:xlink="http://www.w3.org/1999/xlink">
    <!-- Generator: Sketch 48.2 (47327) - http://www.bohemiancoding.com/sketch -->
    <title>otto</title>
    <desc>Created with Sketch.</desc>
    <defs></defs>
    <g id="Page-1" stroke="none" stroke-width="1" fill="none" fill-rule="evenodd">
        <g id="otto" fill="#f4c70b" fill-rule="nonzero">
            <circle id="XMLID_12_" cx="185.5" cy="71.5" r="5.5"></circle>
            <path d="M149.5,27.8417021 C160.345957,27.8417021 169.158298,36.6665957 169.158298,47.5 C169.158298,58.3334043 160.333404,67.1582979 149.5,67.1582979 C138.654043,67.1582979 129.841702,58.3334043 129.841702,47.5 C129.841702,36.6665957 138.654043,27.8417021 149.5,27.8417021 Z M149.5,18 C133.205957,18 120,31.2059574 120,47.5 C120,63.7940426 133.205957,77 149.5,77 C165.794043,77 179,63.7940426 179,47.5 C179,31.2059574 165.794043,18 149.5,18 Z" id="XMLID_9_"></path>
            <path d="M29.5,27.8417021 C40.3459574,27.8417021 49.1582979,36.6665957 49.1582979,47.5 C49.1582979,58.3334043 40.3334043,67.1582979 29.5,67.1582979 C18.6665957,67.1582979 9.84170213,58.3334043 9.84170213,47.5 C9.84170213,36.6665957 18.6540426,27.8417021 29.5,27.8417021 Z M29.5,18 C13.2059574,18 0,31.2059574 0,47.5 C0,63.7940426 13.2059574,77 29.5,77 C45.7940426,77 59,63.7940426 59,47.5 C59,31.2059574 45.7940426,18 29.5,18 Z" id="XMLID_6_"></path>
            <polygon id="XMLID_5_" points="91 19.375 77.9459459 19.375 77.9459459 0 68 0 68 75 77.9459459 75 77.9459459 27.5 91 27.5"></polygon>
            <polygon id="XMLID_1_" points="120 19.375 106.945946 19.375 106.945946 0 97 0 97 75 106.945946 75 106.945946 27.5 120 27.5"></polygon>
        </g>
    </g>
</svg>