<?xml version="1.0" encoding="UTF-8"?>
<svg width="66px" height="71px" viewBox="0 0 66 71" version="1.1" xmlns="http://www.w3.org/2000/svg" xmlns:xlink="http://www.w3.org/1999/xlink">
    <!-- Generator: Sketch 48.2 (47327) - http://www.bohemiancoding.com/sketch -->
    <title>Group 11</title>
    <desc>Created with Sketch.</desc>
    <defs></defs>
    <g id="01-home" stroke="none" stroke-width="1" fill="none" fill-rule="evenodd" transform="translate(-1087.000000, -1570.000000)">
        <g id="Group-11" transform="translate(1087.000000, 1570.000000)" fill="#1B5FCC">
            <g id="Group-10" transform="translate(19.000000, 0.000000)">
                <path d="M13.492,30.7 C14.334,30.7 14.982,31 15.608,31.28 C16.396,31.62 17.21,32 18.732,32 C19.45,31.9 22.216,29.18 23.722,25.24 C21.228,24.4 19.52,22.12 19.52,19.4 C19.52,17.12 20.674,15.16 22.552,14.1 C21.296,12.68 19.884,12 19.522,12 C18.368,12 17.36,12.34 16.386,12.66 C15.464,12.96 14.512,13.28 13.492,13.28 C12.456,13.28 11.434,12.96 10.448,12.64 C9.472,12.32 8.462,12 7.458,12 C6.054,12 2,14.76 2,20.04 C2,25.74 6.23,32 8.026,32 C9.564,32 10.496,31.6 11.316,31.26 C11.98,30.98 12.664,30.7 13.492,30.7 Z M18.732,34 C16.78,34 15.628,33.48 14.788,33.1 C13.746,32.62 13.204,32.64 12.088,33.1 C11.192,33.48 9.966,34 8.026,34 C4.5,34 0,26.16 0,20.04 C0,13.8 4.828,10 7.458,10 C8.778,10 9.992,10.38 11.064,10.74 C11.942,11.02 12.772,11.28 13.492,11.28 C14.184,11.28 14.91,11.04 15.75,10.76 C16.824,10.4 18.042,10 19.526,10 C20.886,10 23.39,11.58 24.954,13.94 C25.128,14.2 25.168,14.54 25.06,14.84 C24.956,15.14 24.716,15.36 24.414,15.46 C22.656,16 21.52,17.54 21.52,19.4 C21.52,21.52 23.052,23.24 25.16,23.52 C25.452,23.56 25.712,23.72 25.87,23.98 C26.03,24.22 26.07,24.52 25.984,24.8 C24.584,29.36 20.926,34 18.732,34 L18.732,34 Z" id="Fill-1512"></path>
                <path d="M17.872,2.12 C16.018,2.56 14.556,4.02 14.128,5.86 C15.98,5.44 17.442,3.98 17.872,2.12 Z M13,8 C12.446,8 12,7.54 12,7 C12,3.14 15.14,0 19,0 C19.552,0 20,0.44 20,1 C20,4.86 16.858,8 13,8 L13,8 Z" id="Fill-1513"></path>
            </g>
            <g id="Group-8" transform="translate(0.000000, 41.000000)">
                <path d="M11,2 C7.14,2 4,5.14 4,9 L4,23 C4,23.54 4.448,24 5,24 L17,24 C17.55,24 18,23.54 18,23 L18,9 C18,5.14 14.858,2 11,2 Z M17,26 L5,26 C3.344,26 2,24.64 2,23 L2,9 C2,4.02 6.036,0 11,0 C15.962,0 20,4.02 20,9 L20,23 C20,24.64 18.654,26 17,26 L17,26 Z" id="Fill-1524"></path>
                <path d="M19,10 L3,10 C2.446,10 2,9.54 2,9 C2,8.44 2.446,8 3,8 L19,8 C19.552,8 20,8.44 20,9 C20,9.54 19.552,10 19,10" id="Fill-1525"></path>
                <path d="M5.0005,4.005 C4.7445,4.005 4.4885,3.905 4.2925,3.705 L2.2925,1.705 C1.9025,1.305 1.9025,0.685 2.2925,0.285 C2.6825,-0.095 3.3165,-0.095 3.7065,0.285 L5.7065,2.285 C6.0965,2.685 6.0965,3.305 5.7065,3.705 C5.5105,3.905 5.2565,4.005 5.0005,4.005" id="Fill-1526"></path>
                <path d="M17.0005,4.005 C16.7445,4.005 16.4885,3.905 16.2925,3.705 C15.9025,3.305 15.9025,2.685 16.2925,2.285 L18.2925,0.285 C18.6825,-0.095 19.3165,-0.095 19.7065,0.285 C20.0965,0.685 20.0965,1.305 19.7065,1.705 L17.7065,3.705 C17.5105,3.905 17.2565,4.005 17.0005,4.005" id="Fill-1527"></path>
                <path d="M1,22 C0.446,22 0,21.54 0,21 L0,11 C0,10.44 0.446,10 1,10 C1.552,10 2,10.44 2,11 L2,21 C2,21.54 1.552,22 1,22" id="Fill-1528"></path>
                <path d="M21,22 C20.446,22 20,21.54 20,21 L20,11 C20,10.44 20.446,10 21,10 C21.552,10 22,10.44 22,11 L22,21 C22,21.54 21.552,22 21,22" id="Fill-1529"></path>
                <path d="M5,30 C4.446,30 4,29.54 4,29 L4,25 C4,24.44 4.446,24 5,24 C5.552,24 6,24.44 6,25 L6,29 C6,29.54 5.552,30 5,30" id="Fill-1530"></path>
                <path d="M17,30 C16.446,30 16,29.54 16,29 L16,25 C16,24.44 16.446,24 17,24 C17.552,24 18,24.44 18,25 L18,29 C18,29.54 17.552,30 17,30" id="Fill-1531"></path>
            </g>
            <g id="Group-9" transform="translate(36.000000, 39.000000)">
                <path d="M2,26.13 L28,29.85 L28,2.15 L2,5.87 L2,26.13 Z M29,32.01 C28.952,32.01 28.904,31.99 28.858,31.99 L0.858,27.99 C0.366,27.93 0,27.51 0,27.01 L0,5.01 C0,4.51 0.366,4.09 0.858,4.01 L28.858,0.01 C29.142,-0.03 29.436,0.05 29.654,0.25 C29.874,0.43 30,0.71 30,1.01 L30,31.01 C30,31.29 29.874,31.57 29.654,31.75 C29.472,31.91 29.238,32.01 29,32.01 L29,32.01 Z" id="Fill-1536"></path>
                <path d="M29,16 L1,16 C0.446,16 0,15.54 0,15 C0,14.44 0.446,14 1,14 L29,14 C29.552,14 30,14.44 30,15 C30,15.54 29.552,16 29,16" id="Fill-1537"></path>
                <path d="M15,30 C14.446,30 14,29.54 14,29 L14,3 C14,2.44 14.446,2 15,2 C15.552,2 16,2.44 16,3 L16,29 C16,29.54 15.552,30 15,30" id="Fill-1538"></path>
            </g>
        </g>
    </g>
</svg>