<?xml version="1.0" encoding="UTF-8"?>
<svg width="60px" height="60px" viewBox="0 0 60 60" version="1.1" xmlns="http://www.w3.org/2000/svg" xmlns:xlink="http://www.w3.org/1999/xlink">
    <!-- Generator: Sketch 48.2 (47327) - http://www.bohemiancoding.com/sketch -->
    <title>Group</title>
    <desc>Created with Sketch.</desc>
    <defs></defs>
    <g id="01-home" stroke="none" stroke-width="1" fill="none" fill-rule="evenodd" transform="translate(-690.000000, -2049.000000)">
        <g id="Group-2" transform="translate(290.000000, 2049.000000)" fill="#1B5FCC">
            <g id="Group" transform="translate(400.000000, 0.000000)">
                <path d="M59,42 L51,42 C50.446,42 50,41.54 50,41 C50,40.44 50.446,40 51,40 L58,40 L58,2 L14,2 L14,31 C14,31.54 13.552,32 13,32 C12.446,32 12,31.54 12,31 L12,1 C12,0.44 12.446,0 13,0 L59,0 C59.552,0 60,0.44 60,1 L60,41 C60,41.54 59.552,42 59,42" id="Fill-2778"></path>
                <path d="M20.998,32 C20.808,32 20.616,31.94 20.444,31.82 C19.984,31.52 19.86,30.9 20.168,30.44 L28.168,18.44 C28.366,18.14 28.692,17.98 29.062,18 C29.418,18.02 29.734,18.22 29.894,18.54 L33.08,24.92 L38.142,16.48 C38.328,16.16 38.672,15.96 39.038,16 C39.402,16 39.73,16.22 39.894,16.54 L41.21,19.18 L50.23,8.36 C50.586,7.94 51.214,7.86 51.64,8.22 C52.064,8.58 52.122,9.2 51.768,9.64 L41.768,21.64 C41.552,21.9 41.22,22.02 40.884,21.98 C40.55,21.94 40.256,21.74 40.104,21.44 L38.92,19.06 L33.856,27.5 C33.668,27.82 33.306,27.98 32.962,28 C32.596,27.98 32.268,27.76 32.104,27.44 L28.876,20.98 L21.832,31.54 C21.638,31.84 21.322,32 20.998,32" id="Fill-2779"></path>
                <path d="M4,36 C2.896,36 2,36.88 2,38 L2,44 C2,45.1 2.896,46 4,46 L44,46 C45.102,46 46,45.1 46,44 L46,38 C46,36.88 45.102,36 44,36 L4,36 Z M44,48 L4,48 C1.794,48 0,46.2 0,44 L0,38 C0,35.78 1.794,34 4,34 L44,34 C46.206,34 48,35.78 48,38 L48,44 C48,46.2 46.206,48 44,48 L44,48 Z" id="Fill-2780"></path>
                <path d="M41,42 L29,42 C28.446,42 28,41.54 28,41 C28,40.44 28.446,40 29,40 L41,40 C41.552,40 42,40.44 42,41 C42,41.54 41.552,42 41,42" id="Fill-2781"></path>
                <path d="M7,43 C5.896,43 5,42.1 5,41 C5,39.88 5.896,39 7,39 C8.102,39 9,39.88 9,41 C9,42.1 8.102,43 7,43" id="Fill-2782"></path>
                <path d="M4,48 C2.896,48 2,48.88 2,50 L2,56 C2,57.1 2.896,58 4,58 L44,58 C45.102,58 46,57.1 46,56 L46,50 C46,48.88 45.102,48 44,48 L4,48 Z M44,60 L4,60 C1.794,60 0,58.2 0,56 L0,50 C0,47.78 1.794,46 4,46 L44,46 C46.206,46 48,47.78 48,50 L48,56 C48,58.2 46.206,60 44,60 L44,60 Z" id="Fill-2783"></path>
                <path d="M41,54 L29,54 C28.446,54 28,53.54 28,53 C28,52.44 28.446,52 29,52 L41,52 C41.552,52 42,52.44 42,53 C42,53.54 41.552,54 41,54" id="Fill-2784"></path>
                <path d="M7,55 C5.896,55 5,54.1 5,53 C5,51.88 5.896,51 7,51 C8.102,51 9,51.88 9,53 C9,54.1 8.102,55 7,55" id="Fill-2785"></path>
            </g>
        </g>
    </g>
</svg>