<?xml version="1.0" encoding="UTF-8"?>
<svg width="60px" height="60px" viewBox="0 0 60 60" version="1.1" xmlns="http://www.w3.org/2000/svg" xmlns:xlink="http://www.w3.org/1999/xlink">
    <!-- Generator: Sketch 48.2 (47327) - http://www.bohemiancoding.com/sketch -->
    <title>Group 3</title>
    <desc>Created with Sketch.</desc>
    <defs></defs>
    <g id="01-home" stroke="none" stroke-width="1" fill="none" fill-rule="evenodd" transform="translate(-1090.000000, -2049.000000)">
        <g id="Group-2" transform="translate(290.000000, 2049.000000)" fill="#1B5FCC">
            <g id="Group-3" transform="translate(800.000000, 0.000000)">
                <path d="M6.186,2 C3.878,2 2,3.86 2,6.18 L2,11.8 C2,14.12 3.878,16 6.186,16 L53.812,16 C56.122,16 58,14.12 58,11.8 L58,6.18 C58,3.86 56.122,2 53.812,2 L6.186,2 Z M53.812,18 L6.186,18 C2.774,18 0,15.22 0,11.8 L0,6.18 C0,2.76 2.774,0 6.186,0 L53.812,0 C57.224,0 60,2.76 60,6.18 L60,11.8 C60,15.22 57.224,18 53.812,18 L53.812,18 Z" id="Fill-3030"></path>
                <path d="M9,8 C8.448,8 8,8.44 8,9 C8,9.54 8.448,10 9,10 C9.55,10 10,9.54 10,9 C10,8.44 9.55,8 9,8 Z M9,12 C7.344,12 6,10.64 6,9 C6,7.34 7.344,6 9,6 C10.654,6 12,7.34 12,9 C12,10.64 10.654,12 9,12 L9,12 Z" id="Fill-3031"></path>
                <path d="M51,12 C50.446,12 50,11.54 50,11 L50,7 C50,6.44 50.446,6 51,6 C51.552,6 52,6.44 52,7 L52,11 C52,11.54 51.552,12 51,12" id="Fill-3032"></path>
                <path d="M45,12 C44.446,12 44,11.54 44,11 L44,7 C44,6.44 44.446,6 45,6 C45.552,6 46,6.44 46,7 L46,11 C46,11.54 45.552,12 45,12" id="Fill-3033"></path>
                <path d="M39,12 C38.446,12 38,11.54 38,11 L38,7 C38,6.44 38.446,6 39,6 C39.552,6 40,6.44 40,7 L40,11 C40,11.54 39.552,12 39,12" id="Fill-3034"></path>
                <path d="M33,12 C32.446,12 32,11.54 32,11 L32,7 C32,6.44 32.446,6 33,6 C33.552,6 34,6.44 34,7 L34,11 C34,11.54 33.552,12 33,12" id="Fill-3035"></path>
                <path d="M9,30 C8.448,30 8,30.44 8,31 C8,31.54 8.448,32 9,32 C9.55,32 10,31.54 10,31 C10,30.44 9.55,30 9,30 Z M9,34 C7.344,34 6,32.64 6,31 C6,29.34 7.344,28 9,28 C10.654,28 12,29.34 12,31 C12,32.64 10.654,34 9,34 L9,34 Z" id="Fill-3036"></path>
                <path d="M51,32.28 C50.446,32.28 50,31.82 50,31.28 L50,29 C50,28.44 50.446,28 51,28 C51.552,28 52,28.44 52,29 L52,31.28 C52,31.82 51.552,32.28 51,32.28" id="Fill-3037"></path>
                <path d="M45,31.84 C44.446,31.84 44,31.4 44,30.84 L44,29 C44,28.44 44.446,28 45,28 C45.552,28 46,28.44 46,29 L46,30.84 C46,31.4 45.552,31.84 45,31.84" id="Fill-3038"></path>
                <path d="M39,34 C38.446,34 38,33.54 38,33 L38,29 C38,28.44 38.446,28 39,28 C39.552,28 40,28.44 40,29 L40,33 C40,33.54 39.552,34 39,34" id="Fill-3039"></path>
                <path d="M33,34 C32.446,34 32,33.54 32,33 L32,29 C32,28.44 32.446,28 33,28 C33.552,28 34,28.44 34,29 L34,33 C34,33.54 33.552,34 33,34" id="Fill-3040"></path>
                <path d="M23,24 C22.446,24 22,23.54 22,23 L22,17 C22,16.44 22.446,16 23,16 C23.552,16 24,16.44 24,17 L24,23 C24,23.54 23.552,24 23,24" id="Fill-3041"></path>
                <path d="M20,48 L26,48 L26,46 L25,46 C24.446,46 24,45.54 24,45 L24,44 L22,44 L22,45 C22,45.54 21.552,46 21,46 L20,46 L20,48 Z M27,50 L19,50 C18.446,50 18,49.54 18,49 L18,45 C18,44.44 18.446,44 19,44 L20,44 L20,43 C20,42.44 20.446,42 21,42 L25,42 C25.552,42 26,42.44 26,43 L26,44 L27,44 C27.552,44 28,44.44 28,45 L28,49 C28,49.54 27.552,50 27,50 L27,50 Z" id="Fill-3042"></path>
                <path d="M23,44 C22.446,44 22,43.54 22,43 L22,39 C22,38.44 22.446,38 23,38 C23.552,38 24,38.44 24,39 L24,43 C24,43.54 23.552,44 23,44" id="Fill-3043"></path>
                <path d="M31,48 L27,48 C26.446,48 26,47.54 26,47 C26,46.44 26.446,46 27,46 L31,46 C31.552,46 32,46.44 32,47 C32,47.54 31.552,48 31,48" id="Fill-3044"></path>
                <path d="M19,48 L5,48 C4.446,48 4,47.54 4,47 C4,46.44 4.446,46 5,46 L19,46 C19.552,46 20,46.44 20,47 C20,47.54 19.552,48 19,48" id="Fill-3045"></path>
                <path d="M32.704,40 L6.186,40 C2.774,40 0,37.22 0,33.8 L0,28.18 C0,24.76 2.774,22 6.186,22 L53.812,22 C57.224,22 60,24.76 60,28.18 L60,33.8 C60,34.66 59.822,35.5 59.472,36.3 C59.25,36.8 58.658,37.02 58.156,36.8 C57.65,36.58 57.42,36 57.64,35.48 C57.88,34.94 58,34.38 58,33.8 L58,28.18 C58,25.86 56.122,24 53.812,24 L6.186,24 C3.878,24 2,25.86 2,28.18 L2,33.8 C2,36.12 3.878,38 6.186,38 L32.704,38 C33.256,38 33.704,38.44 33.704,39 C33.704,39.54 33.256,40 32.704,40" id="Fill-3046"></path>
                <path d="M47,56 C48.38,56 49.51,56.7 50.04,57.8 C51.746,57.28 53.304,56.36 54.616,55.04 C53.888,53.98 53.788,52.56 54.442,51.4 C55.1,50.24 56.338,49.58 57.63,49.72 C57.878,48.76 58,47.86 58,47 C58,46.12 57.878,45.22 57.63,44.28 C56.34,44.4 55.1,43.76 54.442,42.58 C53.788,41.44 53.888,40.02 54.616,38.94 C53.304,37.64 51.746,36.7 50.04,36.2 C49.51,37.3 48.38,38 47,38 C45.62,38 44.488,37.3 43.96,36.2 C42.252,36.7 40.694,37.64 39.384,38.94 C40.11,40.02 40.212,41.44 39.556,42.58 C38.898,43.74 37.632,44.38 36.37,44.28 C36.122,45.22 36,46.12 36,47 C36,47.86 36.122,48.76 36.37,49.72 C37.646,49.62 38.898,50.24 39.556,51.4 C40.21,52.56 40.11,53.98 39.384,55.04 C40.694,56.36 42.252,57.28 43.96,57.8 C44.488,56.7 45.62,56 47,56 Z M49.35,60 C49.138,60 48.93,59.92 48.758,59.8 C48.53,59.62 48.384,59.38 48.356,59.1 C48.274,58.28 47.602,58 47,58 C46.396,58 45.724,58.28 45.642,59.1 C45.614,59.38 45.468,59.62 45.242,59.8 C45.012,59.96 44.724,60.02 44.45,59.98 C41.676,59.42 39.192,57.94 37.264,55.7 C37.084,55.48 37,55.22 37.026,54.94 C37.054,54.66 37.194,54.42 37.414,54.24 C37.992,53.8 38.166,53 37.814,52.38 C37.468,51.76 36.736,51.54 36.078,51.82 C35.82,51.94 35.528,51.92 35.272,51.82 C35.016,51.7 34.82,51.48 34.732,51.22 C34.238,49.72 34,48.34 34,47 C34,45.64 34.238,44.26 34.732,42.78 C34.82,42.5 35.016,42.28 35.272,42.18 C35.526,42.06 35.818,42.06 36.078,42.16 C36.74,42.46 37.47,42.22 37.816,41.6 C38.166,40.98 37.992,40.18 37.414,39.74 C37.194,39.58 37.054,39.32 37.026,39.04 C37,38.78 37.084,38.5 37.264,38.3 C39.192,36.06 41.676,34.58 44.45,34.02 C44.726,33.96 45.014,34.02 45.242,34.18 C45.468,34.36 45.614,34.62 45.642,34.9 C45.724,35.7 46.396,36 47,36 C47.602,36 48.274,35.7 48.356,34.9 C48.384,34.62 48.53,34.36 48.758,34.18 C48.986,34.02 49.274,33.96 49.55,34.02 C52.322,34.58 54.806,36.06 56.734,38.3 C56.914,38.5 57,38.78 56.972,39.04 C56.944,39.32 56.804,39.58 56.586,39.74 C56.006,40.18 55.834,40.98 56.184,41.6 C56.53,42.22 57.26,42.44 57.922,42.16 C58.18,42.06 58.472,42.06 58.726,42.18 C58.982,42.28 59.178,42.5 59.266,42.78 C59.76,44.26 60,45.64 60,47 C60,48.34 59.76,49.72 59.266,51.22 C59.178,51.48 58.982,51.7 58.726,51.82 C58.47,51.92 58.178,51.92 57.922,51.82 C57.264,51.54 56.53,51.78 56.182,52.38 C55.834,53 56.008,53.8 56.586,54.24 C56.804,54.42 56.944,54.66 56.972,54.94 C57,55.22 56.914,55.48 56.734,55.7 C54.806,57.94 52.322,59.42 49.55,59.98 C49.484,59.98 49.418,60 49.35,60 L49.35,60 Z" id="Fill-3047"></path>
                <path d="M47,42 C44.242,42 42,44.24 42,47 C42,49.76 44.242,52 47,52 C49.756,52 52,49.76 52,47 C52,44.24 49.756,42 47,42 Z M47,54 C43.14,54 40,50.86 40,47 C40,43.14 43.14,40 47,40 C50.858,40 54,43.14 54,47 C54,50.86 50.858,54 47,54 L47,54 Z" id="Fill-3048"></path>
            </g>
        </g>
    </g>
</svg>