<?xml version="1.0" encoding="UTF-8"?>
<svg width="60px" height="60px" viewBox="0 0 60 60" version="1.1" xmlns="http://www.w3.org/2000/svg" xmlns:xlink="http://www.w3.org/1999/xlink">
    <!-- Generator: Sketch 48.2 (47327) - http://www.bohemiancoding.com/sketch -->
    <title>Group 6</title>
    <desc>Created with Sketch.</desc>
    <defs></defs>
    <g id="01-home" stroke="none" stroke-width="1" fill="none" fill-rule="evenodd" transform="translate(-290.000000, -1576.000000)">
        <g id="Group-6" transform="translate(290.000000, 1576.000000)" fill="#1B5FCC">
            <path d="M23,18 C23.006,18 23.012,17.98 23.02,17.98 C23.026,17.98 23.032,18 23.04,18 C23.592,18 24.04,17.54 24.04,17 C24.04,16.44 23.592,16 23.04,16 L23.018,16 L23.008,16 L23,16 C22.446,16 22,16.44 22,17 C22,17.54 22.446,18 23,18" id="Fill-1486"></path>
            <path d="M55,60 L29.918,60 C29.366,60 28.918,59.54 28.918,59 C28.918,58.44 29.366,58 29.918,58 L55,58 C56.654,58 58,56.64 58,55 L58,5 C58,3.34 56.654,2 55,2 L21,2 C19.346,2 18,3.34 18,5 L18,9 C18,9.54 17.552,10 17,10 C16.446,10 16,9.54 16,9 L16,5 C16,2.24 18.242,0 21,0 L55,0 C57.756,0 60,2.24 60,5 L60,55 C60,57.74 57.756,60 55,60" id="Fill-1487"></path>
            <path d="M9,14 C5.14,14 2,17.14 2,21 L2,51 C2,54.86 5.14,58 9,58 L21,58 C24.858,58 28,54.86 28,51 L28,21 C28,17.14 24.858,14 21,14 L9,14 Z M21,60 L9,60 C4.036,60 0,55.96 0,51 L0,21 C0,16.02 4.036,12 9,12 L21,12 C25.962,12 30,16.02 30,21 L30,51 C30,55.96 25.962,60 21,60 L21,60 Z" id="Fill-1488"></path>
            <path d="M55,52 L33,52 C32.446,52 32,51.54 32,51 C32,50.44 32.446,50 33,50 L54,50 L54,6 L22,6 L22,9 C22,9.54 21.552,10 21,10 C20.446,10 20,9.54 20,9 L20,5 C20,4.44 20.446,4 21,4 L55,4 C55.552,4 56,4.44 56,5 L56,51 C56,51.54 55.552,52 55,52" id="Fill-1489"></path>
            <path d="M38,58 C36.896,58 36,57.1 36,56 C36,54.9 36.896,54 38,54 C39.102,54 40,54.9 40,56 C40,57.1 39.102,58 38,58" id="Fill-1490"></path>
            <path d="M14,56 C12.896,56 12,55.1 12,54 C12,52.9 12.896,52 14,52 C15.102,52 16,52.9 16,54 C16,55.1 15.102,56 14,56" id="Fill-1491"></path>
            <path d="M17,18 L13,18 C12.446,18 12,17.54 12,17 C12,16.44 12.446,16 13,16 L17,16 C17.552,16 18,16.44 18,17 C18,17.54 17.552,18 17,18" id="Fill-1492"></path>
            <path d="M29,50 L1,50 C0.446,50 0,49.54 0,49 C0,48.44 0.446,48 1,48 L29,48 C29.552,48 30,48.44 30,49 C30,49.54 29.552,50 29,50" id="Fill-1493"></path>
        </g>
    </g>
</svg>