<?xml version="1.0" encoding="UTF-8"?>
<svg width="60px" height="60px" viewBox="0 0 60 60" version="1.1" xmlns="http://www.w3.org/2000/svg" xmlns:xlink="http://www.w3.org/1999/xlink">
    <!-- Generator: Sketch 48.2 (47327) - http://www.bohemiancoding.com/sketch -->
    <title>Group Copy</title>
    <desc>Created with Sketch.</desc>
    <defs></defs>
    <g id="01-home" stroke="none" stroke-width="1" fill="none" fill-rule="evenodd" transform="translate(-290.000000, -2049.000000)">
        <g id="Group-2" transform="translate(290.000000, 2049.000000)" fill="#1B5FCC">
            <g id="Group-Copy">
                <path d="M1.998,14 C1.79,14 1.58,13.92 1.4,13.8 C0.958,13.46 0.868,12.84 1.2,12.4 L8.7,2.4 C9.826,0.88 11.62,0 13.5,0 L46.08,0 C47.924,0 49.638,0.82 50.784,2.26 L58.784,12.38 C59.126,12.8 59.052,13.44 58.62,13.78 C58.188,14.12 57.558,14.04 57.216,13.62 L49.216,3.52 C48.452,2.54 47.31,2 46.08,2 L13.5,2 C12.246,2 11.05,2.6 10.3,3.6 L2.8,13.6 C2.602,13.86 2.302,14 1.998,14" id="Fill-3304"></path>
                <path d="M6.186,44 C3.878,44 2,45.86 2,48.18 L2,53.8 C2,56.12 3.878,58 6.186,58 L53.812,58 C56.122,58 58,56.12 58,53.8 L58,48.18 C58,45.86 56.122,44 53.812,44 L6.186,44 Z M53.812,60 L6.186,60 C2.774,60 0,57.22 0,53.8 L0,48.18 C0,44.76 2.774,42 6.186,42 L53.812,42 C57.224,42 60,44.76 60,48.18 L60,53.8 C60,57.22 57.224,60 53.812,60 L53.812,60 Z" id="Fill-3305"></path>
                <path d="M9,50 C8.448,50 8,50.44 8,51 C8,51.54 8.448,52 9,52 C9.55,52 10,51.54 10,51 C10,50.44 9.55,50 9,50 Z M9,54 C7.344,54 6,52.64 6,51 C6,49.34 7.344,48 9,48 C10.654,48 12,49.34 12,51 C12,52.64 10.654,54 9,54 L9,54 Z" id="Fill-3306"></path>
                <path d="M51,54 L31,54 C30.446,54 30,53.54 30,53 C30,52.44 30.446,52 31,52 L51,52 C51.552,52 52,52.44 52,53 C52,53.54 51.552,54 51,54" id="Fill-3307"></path>
                <path d="M51,50 L31,50 C30.446,50 30,49.54 30,49 C30,48.44 30.446,48 31,48 L51,48 C51.552,48 52,48.44 52,49 C52,49.54 51.552,50 51,50" id="Fill-3308"></path>
                <path d="M6.186,28 C3.878,28 2,29.86 2,32.18 L2,37.8 C2,40.12 3.878,42 6.186,42 L53.812,42 C56.122,42 58,40.12 58,37.8 L58,32.18 C58,29.86 56.122,28 53.812,28 L6.186,28 Z M53.812,44 L6.186,44 C2.774,44 0,41.22 0,37.8 L0,32.18 C0,28.76 2.774,26 6.186,26 L53.812,26 C57.224,26 60,28.76 60,32.18 L60,37.8 C60,41.22 57.224,44 53.812,44 L53.812,44 Z" id="Fill-3309"></path>
                <path d="M9,34 C8.448,34 8,34.44 8,35 C8,35.54 8.448,36 9,36 C9.55,36 10,35.54 10,35 C10,34.44 9.55,34 9,34 Z M9,38 C7.344,38 6,36.64 6,35 C6,33.34 7.344,32 9,32 C10.654,32 12,33.34 12,35 C12,36.64 10.654,38 9,38 L9,38 Z" id="Fill-3310"></path>
                <path d="M51,38 L31,38 C30.446,38 30,37.54 30,37 C30,36.44 30.446,36 31,36 L51,36 C51.552,36 52,36.44 52,37 C52,37.54 51.552,38 51,38" id="Fill-3311"></path>
                <path d="M51,34 L31,34 C30.446,34 30,33.54 30,33 C30,32.44 30.446,32 31,32 L51,32 C51.552,32 52,32.44 52,33 C52,33.54 51.552,34 51,34" id="Fill-3312"></path>
                <path d="M6.186,12 C3.878,12 2,13.86 2,16.18 L2,21.8 C2,24.12 3.878,26 6.186,26 L53.812,26 C56.122,26 58,24.12 58,21.8 L58,16.18 C58,13.86 56.122,12 53.812,12 L6.186,12 Z M53.812,28 L6.186,28 C2.774,28 0,25.22 0,21.8 L0,16.18 C0,12.76 2.774,10 6.186,10 L53.812,10 C57.224,10 60,12.76 60,16.18 L60,21.8 C60,25.22 57.224,28 53.812,28 L53.812,28 Z" id="Fill-3313"></path>
                <path d="M9,18 C8.448,18 8,18.44 8,19 C8,19.54 8.448,20 9,20 C9.55,20 10,19.54 10,19 C10,18.44 9.55,18 9,18 Z M9,22 C7.344,22 6,20.64 6,19 C6,17.34 7.344,16 9,16 C10.654,16 12,17.34 12,19 C12,20.64 10.654,22 9,22 L9,22 Z" id="Fill-3314"></path>
                <path d="M51,22 L31,22 C30.446,22 30,21.54 30,21 C30,20.44 30.446,20 31,20 L51,20 C51.552,20 52,20.44 52,21 C52,21.54 51.552,22 51,22" id="Fill-3315"></path>
                <path d="M51,18 L31,18 C30.446,18 30,17.54 30,17 C30,16.44 30.446,16 31,16 L51,16 C51.552,16 52,16.44 52,17 C52,17.54 51.552,18 51,18" id="Fill-3316"></path>
            </g>
        </g>
    </g>
</svg>