<?xml version="1.0" encoding="UTF-8"?>
<svg width="58px" height="58px" viewBox="0 0 58 58" version="1.1" xmlns="http://www.w3.org/2000/svg" xmlns:xlink="http://www.w3.org/1999/xlink">
    <!-- Generator: Sketch 48.2 (47327) - http://www.bohemiancoding.com/sketch -->
    <title>Group 7</title>
    <desc>Created with Sketch.</desc>
    <defs></defs>
    <g id="01-home" stroke="none" stroke-width="1" fill="none" fill-rule="evenodd" transform="translate(-691.000000, -1577.000000)">
        <g id="Group-7" transform="translate(691.000000, 1577.000000)" fill="#1B5FCC">
            <path d="M29,2 C14.112,2 2,14.112 2,29 C2,43.888 14.112,56 29,56 C43.888,56 56,43.888 56,29 C56,14.112 43.888,2 29,2 M29,58 C13.01,58 0,44.99 0,29 C0,13.01 13.01,0 29,0 C44.99,0 58,13.01 58,29 C58,44.99 44.99,58 29,58" id="Fill-1561"></path>
            <path d="M29,2 C21.128,2 14.726,14.112 14.726,29 C14.726,43.888 21.128,56 29,56 C36.87,56 43.274,43.888 43.274,29 C43.274,14.112 36.87,2 29,2 M29,58 C20.028,58 12.726,44.99 12.726,29 C12.726,13.01 20.028,0 29,0 C37.972,0 45.274,13.01 45.274,29 C45.274,44.99 37.972,58 29,58" id="Fill-1562"></path>
            <path d="M57,30 L1,30 C0.448,30 0,29.552 0,29 C0,28.448 0.448,28 1,28 L57,28 C57.552,28 58,28.448 58,29 C58,29.552 57.552,30 57,30" id="Fill-1563"></path>
            <path d="M53.2402,16 L4.7602,16 C4.2062,16 3.7602,15.552 3.7602,15 C3.7602,14.448 4.2062,14 4.7602,14 L53.2402,14 C53.7922,14 54.2402,14.448 54.2402,15 C54.2402,15.552 53.7922,16 53.2402,16" id="Fill-1564"></path>
            <path d="M53.2402,44 L4.7602,44 C4.2062,44 3.7602,43.552 3.7602,43 C3.7602,42.448 4.2062,42 4.7602,42 L53.2402,42 C53.7922,42 54.2402,42.448 54.2402,43 C54.2402,43.552 53.7922,44 53.2402,44" id="Fill-1565"></path>
            <path d="M29,58 C28.448,58 28,57.552 28,57 L28,1 C28,0.448 28.448,0 29,0 C29.552,0 30,0.448 30,1 L30,57 C30,57.552 29.552,58 29,58" id="Fill-1566"></path>
        </g>
    </g>
</svg>