<?xml version="1.0" encoding="UTF-8"?>
<svg width="116px" height="146px" viewBox="0 0 116 146" version="1.1" xmlns="http://www.w3.org/2000/svg" xmlns:xlink="http://www.w3.org/1999/xlink">
    <!-- Generator: Sketch 51.2 (57519) - http://www.bohemiancoding.com/sketch -->
    <title>building8</title>
    <desc>Created with Sketch.</desc>
    <defs></defs>
    <g id="Page-1" stroke="none" stroke-width="1" fill="#1B5FCC" fill-rule="evenodd">
        <g id="Artboard-2" transform="translate(-1689.000000, -961.000000)" fill="#1B5FCC">
            <g id="building8" transform="translate(1690.000000, 961.000000)">
                <g id="Group" fill="#1B5FCC">
                    <path d="M112.809,1.548 C111.777,0.516 110.555,0 109.143,0 L4.857,0 C3.444,0 2.222,0.516 1.19,1.548 C0.158,2.58 -0.358,3.802 -0.358,5.214 L-0.358,140.785 C-0.358,142.198 0.158,143.42 1.19,144.452 C2.223,145.484 3.445,146 4.857,146 L109.143,146 C110.555,146 111.778,145.484 112.809,144.452 C113.84,143.42 114.358,142.198 114.358,140.785 L114.358,5.214 C114.357,3.802 113.841,2.58 112.809,1.548 L112.809,1.548 Z M103.928,135.572 L72.643,135.572 L72.643,117.322 C72.643,116.615 72.385,116.004 71.87,115.488 C71.352,114.972 70.743,114.715 70.036,114.715 L43.964,114.715 C43.258,114.715 42.647,114.973 42.131,115.488 C41.615,116.004 41.357,116.615 41.357,117.322 L41.357,135.572 L10.071,135.572 L10.071,10.428 L103.928,10.428 L103.928,135.572 L103.928,135.572 Z" id="Shape" fill="#1B5FCC"></path>
                    <path d="M23.107,114.715 L28.321,114.715 C29.027,114.715 29.638,114.458 30.154,113.942 C30.67,113.424 30.928,112.815 30.928,112.108 L30.928,106.893 C30.928,106.188 30.67,105.577 30.154,105.061 C29.638,104.545 29.027,104.287 28.321,104.287 L23.107,104.287 C22.401,104.287 21.79,104.545 21.274,105.061 C20.758,105.577 20.5,106.188 20.5,106.893 L20.5,112.108 C20.5,112.815 20.758,113.424 21.274,113.942 C21.79,114.457 22.401,114.715 23.107,114.715 L23.107,114.715 Z" id="Shape" fill="#1B5FCC"></path>
                    <path d="M23.107,93.857 L28.321,93.857 C29.027,93.857 29.638,93.599 30.154,93.084 C30.67,92.566 30.928,91.957 30.928,91.25 L30.928,86.035 C30.928,85.33 30.67,84.718 30.154,84.203 C29.638,83.687 29.027,83.429 28.321,83.429 L23.107,83.429 C22.401,83.429 21.79,83.688 21.274,84.203 C20.758,84.718 20.5,85.33 20.5,86.035 L20.5,91.25 C20.5,91.957 20.758,92.566 21.274,93.084 C21.79,93.599 22.401,93.857 23.107,93.857 L23.107,93.857 Z" id="Shape" fill="#1B5FCC"></path>
                    <path d="M43.965,93.857 L49.179,93.857 C49.885,93.857 50.496,93.599 51.012,93.084 C51.528,92.566 51.786,91.957 51.786,91.25 L51.786,86.035 C51.786,85.33 51.527,84.719 51.012,84.203 C50.496,83.687 49.885,83.429 49.179,83.429 L43.965,83.429 C43.259,83.429 42.648,83.688 42.132,84.203 C41.616,84.719 41.358,85.33 41.358,86.035 L41.358,91.25 C41.358,91.957 41.616,92.566 42.132,93.084 C42.648,93.599 43.259,93.857 43.965,93.857 L43.965,93.857 Z" id="Shape" fill="#1B5FCC"></path>
                    <path d="M23.107,73 L28.321,73 C29.027,73 29.638,72.742 30.154,72.226 C30.67,71.71 30.928,71.099 30.928,70.393 L30.928,65.179 C30.928,64.473 30.67,63.862 30.154,63.346 C29.638,62.83 29.027,62.572 28.321,62.572 L23.107,62.572 C22.401,62.572 21.79,62.83 21.274,63.346 C20.758,63.862 20.5,64.473 20.5,65.179 L20.5,70.393 C20.5,71.099 20.758,71.71 21.274,72.226 C21.79,72.742 22.401,73 23.107,73 L23.107,73 Z" id="Shape" fill="#1B5FCC"></path>
                    <path d="M85.678,114.715 L90.893,114.715 C91.6,114.715 92.21,114.458 92.727,113.942 C93.243,113.424 93.5,112.815 93.5,112.108 L93.5,106.893 C93.5,106.188 93.242,105.577 92.727,105.061 C92.21,104.545 91.6,104.287 90.893,104.287 L85.678,104.287 C84.973,104.287 84.362,104.545 83.846,105.061 C83.33,105.577 83.073,106.188 83.073,106.893 L83.073,112.108 C83.073,112.815 83.33,113.424 83.846,113.942 C84.361,114.457 84.973,114.715 85.678,114.715 L85.678,114.715 Z" id="Shape" fill="#1B5FCC"></path>
                    <path d="M64.822,93.857 L70.036,93.857 C70.743,93.857 71.353,93.599 71.87,93.084 C72.385,92.566 72.642,91.957 72.642,91.25 L72.642,86.035 C72.642,85.33 72.384,84.719 71.87,84.203 C71.353,83.687 70.743,83.429 70.036,83.429 L64.822,83.429 C64.116,83.429 63.504,83.688 62.988,84.203 C62.474,84.719 62.215,85.33 62.215,86.035 L62.215,91.25 C62.215,91.957 62.473,92.566 62.988,93.084 C63.505,93.599 64.116,93.857 64.822,93.857 L64.822,93.857 Z" id="Shape" fill="#1B5FCC"></path>
                    <path d="M43.965,73 L49.179,73 C49.885,73 50.496,72.742 51.012,72.226 C51.528,71.71 51.786,71.099 51.786,70.393 L51.786,65.179 C51.786,64.473 51.527,63.863 51.012,63.346 C50.496,62.83 49.885,62.572 49.179,62.572 L43.965,62.572 C43.259,62.572 42.648,62.83 42.132,63.346 C41.616,63.862 41.358,64.473 41.358,65.179 L41.358,70.393 C41.358,71.099 41.616,71.71 42.132,72.226 C42.648,72.742 43.259,73 43.965,73 L43.965,73 Z" id="Shape" fill="#1B5FCC"></path>
                    <path d="M23.107,52.143 L28.321,52.143 C29.027,52.143 29.638,51.885 30.154,51.369 C30.67,50.853 30.928,50.243 30.928,49.536 L30.928,44.322 C30.928,43.616 30.67,43.004 30.154,42.489 C29.638,41.973 29.027,41.715 28.321,41.715 L23.107,41.715 C22.401,41.715 21.79,41.973 21.274,42.489 C20.758,43.005 20.5,43.616 20.5,44.322 L20.5,49.536 C20.5,50.242 20.758,50.853 21.274,51.369 C21.79,51.885 22.401,52.143 23.107,52.143 L23.107,52.143 Z" id="Shape" fill="#1B5FCC"></path>
                    <path d="M85.678,93.857 L90.893,93.857 C91.6,93.857 92.21,93.599 92.727,93.084 C93.243,92.566 93.5,91.957 93.5,91.25 L93.5,86.035 C93.5,85.33 93.242,84.719 92.727,84.203 C92.21,83.687 91.6,83.429 90.893,83.429 L85.678,83.429 C84.973,83.429 84.362,83.688 83.846,84.203 C83.33,84.718 83.073,85.33 83.073,86.035 L83.073,91.25 C83.073,91.957 83.33,92.566 83.846,93.084 C84.361,93.599 84.973,93.857 85.678,93.857 L85.678,93.857 Z" id="Shape" fill="#1B5FCC"></path>
                    <path d="M64.822,73 L70.036,73 C70.743,73 71.353,72.742 71.87,72.226 C72.385,71.71 72.642,71.099 72.642,70.393 L72.642,65.179 C72.642,64.473 72.384,63.863 71.87,63.346 C71.353,62.83 70.743,62.572 70.036,62.572 L64.822,62.572 C64.116,62.572 63.504,62.83 62.988,63.346 C62.474,63.862 62.215,64.473 62.215,65.179 L62.215,70.393 C62.215,71.099 62.473,71.71 62.988,72.226 C63.505,72.742 64.116,73 64.822,73 L64.822,73 Z" id="Shape" fill="#1B5FCC"></path>
                    <path d="M43.965,52.143 L49.179,52.143 C49.885,52.143 50.496,51.885 51.012,51.369 C51.528,50.853 51.786,50.243 51.786,49.536 L51.786,44.322 C51.786,43.616 51.527,43.004 51.012,42.489 C50.496,41.973 49.885,41.715 49.179,41.715 L43.965,41.715 C43.259,41.715 42.648,41.973 42.132,42.489 C41.616,43.005 41.358,43.616 41.358,44.322 L41.358,49.536 C41.358,50.242 41.616,50.853 42.132,51.369 C42.648,51.885 43.259,52.143 43.965,52.143 L43.965,52.143 Z" id="Shape" fill="#1B5FCC"></path>
                    <path d="M23.107,31.285 L28.321,31.285 C29.027,31.285 29.638,31.027 30.154,30.511 C30.67,29.995 30.928,29.384 30.928,28.678 L30.928,23.464 C30.928,22.758 30.67,22.147 30.154,21.631 C29.638,21.115 29.027,20.857 28.321,20.857 L23.107,20.857 C22.401,20.857 21.79,21.115 21.274,21.631 C20.758,22.147 20.5,22.758 20.5,23.464 L20.5,28.678 C20.5,29.384 20.758,29.995 21.274,30.511 C21.79,31.027 22.401,31.285 23.107,31.285 L23.107,31.285 Z" id="Shape" fill="#1B5FCC"></path>
                    <path d="M85.678,73 L90.893,73 C91.6,73 92.21,72.742 92.727,72.226 C93.243,71.71 93.5,71.099 93.5,70.393 L93.5,65.179 C93.5,64.473 93.242,63.863 92.727,63.346 C92.21,62.83 91.6,62.572 90.893,62.572 L85.678,62.572 C84.973,62.572 84.362,62.83 83.846,63.346 C83.33,63.862 83.073,64.473 83.073,65.179 L83.073,70.393 C83.073,71.099 83.33,71.71 83.846,72.226 C84.361,72.742 84.973,73 85.678,73 L85.678,73 Z" id="Shape" fill="#1B5FCC"></path>
                    <path d="M64.822,52.143 L70.036,52.143 C70.743,52.143 71.353,51.885 71.87,51.369 C72.385,50.853 72.642,50.243 72.642,49.536 L72.642,44.322 C72.642,43.616 72.384,43.004 71.87,42.489 C71.353,41.973 70.743,41.715 70.036,41.715 L64.822,41.715 C64.116,41.715 63.505,41.973 62.988,42.489 C62.474,43.005 62.215,43.616 62.215,44.322 L62.215,49.536 C62.215,50.242 62.473,50.853 62.988,51.369 C63.505,51.885 64.116,52.143 64.822,52.143 L64.822,52.143 Z" id="Shape" fill="#1B5FCC"></path>
                    <path d="M43.965,31.285 L49.179,31.285 C49.885,31.285 50.496,31.027 51.012,30.511 C51.528,29.995 51.786,29.384 51.786,28.678 L51.786,23.464 C51.786,22.758 51.527,22.147 51.012,21.631 C50.496,21.115 49.885,20.857 49.179,20.857 L43.965,20.857 C43.259,20.857 42.648,21.115 42.132,21.631 C41.616,22.147 41.358,22.758 41.358,23.464 L41.358,28.678 C41.358,29.384 41.616,29.995 42.132,30.511 C42.648,31.027 43.259,31.285 43.965,31.285 L43.965,31.285 Z" id="Shape" fill="#1B5FCC"></path>
                    <path d="M85.678,52.143 L90.893,52.143 C91.6,52.143 92.21,51.885 92.727,51.369 C93.243,50.853 93.5,50.243 93.5,49.536 L93.5,44.322 C93.5,43.616 93.242,43.004 92.727,42.489 C92.21,41.973 91.6,41.715 90.893,41.715 L85.678,41.715 C84.973,41.715 84.362,41.973 83.846,42.489 C83.33,43.005 83.073,43.616 83.073,44.322 L83.073,49.536 C83.073,50.242 83.33,50.853 83.846,51.369 C84.361,51.885 84.973,52.143 85.678,52.143 L85.678,52.143 Z" id="Shape" fill="#1B5FCC"></path>
                    <path d="M64.822,31.285 L70.036,31.285 C70.743,31.285 71.353,31.027 71.87,30.511 C72.385,29.995 72.642,29.384 72.642,28.678 L72.642,23.464 C72.642,22.758 72.384,22.147 71.87,21.631 C71.353,21.115 70.743,20.857 70.036,20.857 L64.822,20.857 C64.116,20.857 63.504,21.115 62.988,21.631 C62.474,22.147 62.215,22.758 62.215,23.464 L62.215,28.678 C62.215,29.384 62.473,29.995 62.988,30.511 C63.505,31.027 64.116,31.285 64.822,31.285 L64.822,31.285 Z" id="Shape" fill="#1B5FCC"></path>
                    <path d="M85.678,31.285 L90.893,31.285 C91.6,31.285 92.21,31.027 92.727,30.511 C93.243,29.995 93.5,29.384 93.5,28.678 L93.5,23.464 C93.5,22.758 93.242,22.147 92.727,21.631 C92.21,21.115 91.6,20.857 90.893,20.857 L85.678,20.857 C84.973,20.857 84.362,21.115 83.846,21.631 C83.33,22.147 83.073,22.758 83.073,23.464 L83.073,28.678 C83.073,29.384 83.33,29.995 83.846,30.511 C84.361,31.027 84.973,31.285 85.678,31.285 L85.678,31.285 Z" id="Shape" fill="#1B5FCC"></path>
                </g>
            </g>
        </g>
    </g>
</svg>