<?xml version="1.0" encoding="UTF-8"?>
<svg width="471px" height="512px" viewBox="0 0 471 512" version="1.1" xmlns="http://www.w3.org/2000/svg" xmlns:xlink="http://www.w3.org/1999/xlink">
    <!-- Generator: Sketch 51.2 (57519) - http://www.bohemiancoding.com/sketch -->
    <title>map-signs</title>
    <desc>Created with Sketch.</desc>
    <defs>
        <path d="M487.5435,104.485 L439.0585,152.97 C434.557818,157.470761 428.453482,159.999186 422.0885,159.999 L56.0285,159.999 C42.7735,159.999 32.0285,149.254 32.0285,135.999 L32.0285,56 C32.0285,42.745 42.7735,32 56.0285,32 L216.0285,32 L216.0285,24 C216.0285,10.745 226.7735,0 240.0285,0 L272.0285,0 C285.2835,0 296.0285,10.745 296.0285,24 L296.0285,32 L422.0875,32 C428.452438,32.0000333 434.556693,34.5284251 439.0575,39.029 L487.5425,87.514 C492.2295,92.201 492.2295,99.799 487.5435,104.485 Z M216.0285,368 L216.0285,488 C216.0285,501.255 226.7735,512 240.0285,512 L272.0285,512 C285.2835,512 296.0285,501.255 296.0285,488 L296.0285,368 L216.0285,368 Z M456.0285,224 L296.0285,224 L296.0285,176 L216.0285,176 L216.0285,224 L89.9695,224 C83.604562,224.000033 77.5003068,226.528425 72.9995,231.029 L24.5145,279.514 C19.8285,284.2 19.8285,291.798 24.5145,296.485 L72.9995,344.97 C77.5001823,349.470761 83.6045183,351.999186 89.9695,351.999 L456.0285,351.999 C469.2835,351.999 480.0285,341.254 480.0285,327.999 L480.0285,247.999 C480.0285,234.745 469.2835,224 456.0285,224 Z" id="path-1"></path>
    </defs>
    <g id="Icons" stroke="none" stroke-width="1" fill="none" fill-rule="evenodd">
        <g id="Solid" transform="translate(-6101.000000, -4201.000000)">
            <g id="Row-6" transform="translate(960.000000, 4201.000000)">
                <g id="Solid/map-signs" transform="translate(5120.000000, 0.000000)">
                    <mask id="mask-2" fill="white">
                        <use xlink:href="#path-1"></use>
                    </mask>
                    <use id="Mask" fill="#000000" fill-rule="nonzero" xlink:href="#path-1"></use>
                    <g id="Color/Purple" mask="url(#mask-2)" fill="#1B5FCC" fill-rule="evenodd">
                        <rect id="Purple" x="0" y="0" width="512" height="512"></rect>
                    </g>
                </g>
            </g>
        </g>
    </g>
</svg>