<?xml version="1.0" encoding="UTF-8"?>
<svg width="158px" height="144px" viewBox="0 0 158 144" version="1.1" xmlns="http://www.w3.org/2000/svg" xmlns:xlink="http://www.w3.org/1999/xlink">
    <!-- Generator: Sketch 51.2 (57519) - http://www.bohemiancoding.com/sketch -->
    <title>cogs3</title>
    <desc>Created with Sketch.</desc>
    <defs></defs>
    <g id="Page-1" stroke="none" stroke-width="1" fill="#1B5FCC" fill-rule="evenodd">
        <g id="Artboard-2" transform="translate(-1347.000000, -1843.000000)" fill="#1B5FCC">
            <g id="cogs3" transform="translate(1348.000000, 1843.000000)">
                <g id="Group" fill="#1B5FCC">
                    <path d="M94.865,101.207 C94.865,100.664 94.675,100.121 94.295,99.578 C91.253,95.937 88.809,92.814 86.962,90.208 C88.102,87.982 88.971,85.918 89.568,84.018 L102.197,82.063 C102.687,82.008 103.121,81.723 103.501,81.208 C103.881,80.69 104.07,80.162 104.07,79.619 L104.07,64.545 C104.07,63.948 103.881,63.418 103.501,62.957 C103.121,62.496 102.659,62.21 102.116,62.103 L89.732,60.229 C89.133,58.382 88.21,56.154 86.961,53.548 C87.775,52.352 88.998,50.722 90.628,48.659 C92.257,46.595 93.399,45.129 94.05,44.26 C94.43,43.717 94.62,43.2 94.62,42.712 C94.62,41.245 90.709,36.9 82.889,29.676 C82.346,29.242 81.776,29.025 81.177,29.025 C80.526,29.025 79.983,29.213 79.547,29.595 L69.933,36.846 C67.707,35.706 65.67,34.864 63.823,34.32 L61.949,21.855 C61.896,21.312 61.624,20.836 61.135,20.429 C60.646,20.022 60.103,19.818 59.505,19.818 L44.352,19.818 C43.103,19.818 42.288,20.47 41.908,21.773 C41.256,24.272 40.632,28.455 40.034,34.32 C37.699,35.08 35.608,35.949 33.761,36.927 L24.392,29.595 C23.849,29.214 23.279,29.025 22.681,29.025 C21.648,29.025 19.503,30.627 16.244,33.832 C12.985,37.036 10.757,39.453 9.563,41.083 C9.182,41.518 8.993,42.061 8.993,42.713 C8.993,43.201 9.182,43.744 9.563,44.342 C12.604,47.982 15.048,51.105 16.895,53.711 C15.755,55.939 14.886,58.002 14.289,59.903 L1.66,61.857 C1.171,61.911 0.737,62.196 0.356,62.711 C-0.024,63.228 -0.214,63.757 -0.214,64.3 L-0.214,79.372 C-0.214,79.97 -0.024,80.5 0.356,80.961 C0.737,81.423 1.198,81.681 1.742,81.735 L14.126,83.69 C14.778,85.754 15.729,87.981 16.978,90.371 C16.109,91.567 14.833,93.224 13.149,95.341 C11.464,97.46 10.351,98.9 9.808,99.659 C9.428,100.202 9.238,100.72 9.238,101.207 C9.238,102.675 13.149,107.019 20.97,114.243 C21.513,114.677 22.083,114.893 22.681,114.893 C23.387,114.893 23.93,114.705 24.31,114.324 L33.924,107.073 C36.15,108.214 38.187,109.055 40.034,109.598 L41.908,122.064 C41.962,122.607 42.234,123.083 42.722,123.49 C43.211,123.897 43.754,124.1 44.352,124.1 L59.505,124.1 C60.755,124.1 61.569,123.449 61.949,122.145 C62.601,119.591 63.225,115.382 63.823,109.516 C65.995,108.866 68.086,108.022 70.096,106.992 L79.466,114.324 C80.009,114.705 80.579,114.893 81.177,114.893 C82.209,114.893 84.342,113.278 87.573,110.045 C90.804,106.815 93.045,104.383 94.295,102.753 C94.675,102.375 94.865,101.859 94.865,101.207 L94.865,101.207 Z M66.675,86.706 C62.602,90.779 57.686,92.816 51.929,92.816 C46.171,92.816 41.255,90.779 37.182,86.706 C33.109,82.633 31.072,77.717 31.072,71.959 C31.072,66.202 33.109,61.286 37.182,57.213 C41.255,53.139 46.171,51.103 51.929,51.103 C57.686,51.103 62.602,53.139 66.675,57.213 C70.749,61.286 72.785,66.202 72.785,71.959 C72.785,77.717 70.749,82.633 66.675,86.706 L66.675,86.706 Z" id="Shape" fill="#1B5FCC"></path>
                    <path d="M144.074,105.445 C143.369,103.87 142.554,102.458 141.631,101.208 C144.401,95.07 145.785,91.322 145.785,89.965 C145.785,89.749 145.678,89.558 145.46,89.395 C138.941,85.593 135.574,83.692 135.357,83.692 L134.868,83.856 C132.642,86.083 130.142,89.125 127.373,92.981 C126.287,92.873 125.473,92.817 124.93,92.817 C124.385,92.817 123.572,92.873 122.485,92.981 C121.727,91.839 120.313,90.006 118.25,87.481 C116.187,84.956 114.937,83.692 114.502,83.692 C114.394,83.692 113.579,84.127 112.058,84.997 C110.537,85.866 108.935,86.789 107.251,87.768 C105.565,88.747 104.617,89.289 104.399,89.398 C104.18,89.56 104.073,89.751 104.073,89.967 C104.073,91.325 105.458,95.071 108.227,101.21 C107.305,102.46 106.49,103.872 105.784,105.446 C97.69,106.26 93.643,107.102 93.643,107.971 L93.643,119.377 C93.643,120.246 97.69,121.088 105.784,121.902 C106.434,123.368 107.25,124.781 108.227,126.137 C105.458,132.275 104.073,136.023 104.073,137.381 C104.073,137.597 104.18,137.788 104.399,137.951 C111.024,141.807 114.393,143.735 114.502,143.735 C114.937,143.735 116.187,142.459 118.25,139.906 C120.313,137.352 121.726,135.507 122.485,134.366 C123.571,134.473 124.385,134.528 124.93,134.528 C125.473,134.528 126.287,134.473 127.373,134.366 C128.132,135.507 129.545,137.352 131.609,139.906 C133.672,142.459 134.921,143.735 135.357,143.735 C135.465,143.735 138.834,141.806 145.46,137.951 C145.678,137.788 145.785,137.598 145.785,137.381 C145.785,136.023 144.4,132.275 141.631,126.137 C142.608,124.781 143.423,123.368 144.074,121.902 C152.168,121.088 156.215,120.246 156.215,119.377 L156.215,107.971 C156.215,107.102 152.168,106.26 144.074,105.445 L144.074,105.445 Z M132.301,121.047 C130.266,123.084 127.807,124.104 124.928,124.104 C122.049,124.104 119.591,123.084 117.555,121.047 C115.518,119.01 114.499,116.553 114.499,113.674 C114.499,110.85 115.532,108.404 117.596,106.341 C119.66,104.278 122.104,103.245 124.928,103.245 C127.752,103.245 130.198,104.277 132.262,106.341 C134.325,108.404 135.358,110.85 135.358,113.674 C135.357,116.553 134.339,119.01 132.301,121.047 L132.301,121.047 Z" id="Shape" fill="#1B5FCC"></path>
                    <path d="M144.074,22.016 C143.369,20.441 142.554,19.029 141.631,17.779 C144.401,11.642 145.785,7.894 145.785,6.536 C145.785,6.32 145.678,6.129 145.46,5.966 C138.941,2.164 135.574,0.263 135.357,0.263 L134.868,0.426 C132.642,2.654 130.142,5.695 127.373,9.551 C126.287,9.443 125.473,9.388 124.93,9.388 C124.385,9.388 123.572,9.443 122.485,9.551 C121.727,8.41 120.313,6.577 118.25,4.052 C116.187,1.526 114.937,0.263 114.502,0.263 C114.394,0.263 113.579,0.697 112.058,1.567 C110.537,2.437 108.935,3.36 107.251,4.338 C105.565,5.316 104.617,5.859 104.399,5.967 C104.18,6.13 104.073,6.32 104.073,6.537 C104.073,7.895 105.458,11.643 108.227,17.78 C107.305,19.03 106.49,20.442 105.784,22.017 C97.69,22.831 93.643,23.673 93.643,24.542 L93.643,35.948 C93.643,36.817 97.69,37.659 105.784,38.473 C106.434,39.939 107.25,41.352 108.227,42.71 C105.458,48.848 104.073,52.595 104.073,53.953 C104.073,54.169 104.18,54.36 104.399,54.523 C111.024,58.379 114.393,60.307 114.502,60.307 C114.937,60.307 116.187,59.031 118.25,56.478 C120.313,53.925 121.726,52.079 122.485,50.938 C123.571,51.046 124.385,51.101 124.93,51.101 C125.473,51.101 126.287,51.046 127.373,50.938 C128.132,52.079 129.545,53.925 131.609,56.478 C133.672,59.031 134.921,60.307 135.357,60.307 C135.465,60.307 138.834,58.379 145.46,54.523 C145.678,54.36 145.785,54.17 145.785,53.953 C145.785,52.595 144.4,48.848 141.631,42.71 C142.608,41.352 143.423,39.94 144.074,38.473 C152.168,37.659 156.215,36.817 156.215,35.948 L156.215,24.542 C156.215,23.673 152.168,22.831 144.074,22.016 L144.074,22.016 Z M132.301,37.618 C130.266,39.655 127.807,40.674 124.928,40.674 C122.049,40.674 119.591,39.655 117.555,37.618 C115.518,35.582 114.499,33.124 114.499,30.245 C114.499,27.421 115.532,24.976 117.596,22.912 C119.66,20.848 122.104,19.816 124.928,19.816 C127.752,19.816 130.198,20.849 132.262,22.912 C134.325,24.976 135.358,27.421 135.358,30.245 C135.357,33.124 134.339,35.582 132.301,37.618 L132.301,37.618 Z" id="Shape" fill="#1B5FCC"></path>
                </g>
            </g>
        </g>
    </g>
</svg>