<?xml version="1.0" encoding="UTF-8"?>
<svg width="116px" height="116px" viewBox="0 0 116 116" version="1.1" xmlns="http://www.w3.org/2000/svg" xmlns:xlink="http://www.w3.org/1999/xlink">
    <!-- Generator: Sketch 51.2 (57519) - http://www.bohemiancoding.com/sketch -->
    <title>plane12</title>
    <desc>Created with Sketch.</desc>
    <defs></defs>
    <g id="Page-1" stroke="none" stroke-width="1" fill="none" fill-rule="evenodd">
        <g id="Artboard-2" transform="translate(-1129.000000, -1153.000000)" fill="#1B5FCC">
            <g id="plane12" transform="translate(1130.000000, 1154.000000)">
                <path d="M112.998,14.042 C114.736,8.828 114.41,4.809 112.019,1.984 C109.195,-0.406 105.175,-0.731 99.96,1.004 C94.745,2.742 90.074,5.675 85.946,9.803 L72.91,22.839 L18.732,9.885 C17.863,9.613 17.048,9.83 16.288,10.536 L5.859,20.965 C5.262,21.563 5.017,22.296 5.126,23.165 C5.289,24.035 5.751,24.686 6.511,25.121 L47.9,47.852 L26.798,68.954 L10.992,64.637 C10.884,64.582 10.667,64.555 10.341,64.555 C9.58,64.555 8.956,64.799 8.467,65.288 L0.646,73.191 C0.103,73.841 -0.141,74.521 -0.087,75.226 C0.021,76.095 0.374,76.72 0.972,77.101 L21.503,92.498 L36.901,113.029 C37.39,113.627 38.042,113.979 38.857,114.089 L39.02,114.089 C39.781,114.089 40.405,113.845 40.894,113.357 L48.715,105.536 C49.421,104.775 49.638,103.933 49.367,103.01 L45.049,87.204 L66.151,66.101 L88.882,107.491 C89.207,108.197 89.778,108.632 90.593,108.795 C90.755,108.85 90.946,108.876 91.163,108.876 C91.814,108.876 92.33,108.713 92.71,108.388 L103.141,100.567 C104.063,99.807 104.389,98.911 104.118,97.879 L91.083,41.174 L104.2,28.057 C108.327,23.928 111.26,19.256 112.998,14.042 L112.998,14.042 Z" id="Shape"></path>
            </g>
        </g>
    </g>
</svg>