<?xml version="1.0" encoding="UTF-8"?>
<svg width="63px" height="92px" viewBox="0 0 63 92" version="1.1" xmlns="http://www.w3.org/2000/svg" xmlns:xlink="http://www.w3.org/1999/xlink">
    <!-- Generator: Sketch 48.2 (47327) - http://www.bohemiancoding.com/sketch -->
    <title>Combined Shape Copy 4</title>
    <desc>Created with Sketch.</desc>
    <defs>
        <linearGradient x1="95.04776%" y1="23.5816956%" x2="4.96444702%" y2="76.6227722%" id="linearGradient-1">
            <stop stop-color="#2DA1CA" offset="0%"></stop>
            <stop stop-color="#84EEF1" offset="100%"></stop>
        </linearGradient>
    </defs>
    <g id="Artboard" stroke="none" stroke-width="1" fill="none" fill-rule="evenodd" transform="translate(-405.000000, -552.000000)">
        <g id="Group" transform="translate(324.000000, 412.000000)" fill="url(#linearGradient-1)">
            <g id="Group-2" transform="translate(81.000000, 140.000000)">
                <path d="M8.5617289,80.5 C3.8332166,80.5 0,76.638456 0,71.875 C0,67.111544 3.8332166,63.25 8.5617289,63.25 C13.2902412,63.25 17.1234578,67.111544 17.1234578,71.875 C17.1234578,76.638456 13.2902412,80.5 8.5617289,80.5 Z M31.393006,92 C26.6644937,92 22.8312771,88.138456 22.8312771,83.375 C22.8312771,78.611544 26.6644937,74.75 31.393006,74.75 C36.1215183,74.75 39.9547349,78.611544 39.9547349,83.375 C39.9547349,88.138456 36.1215183,92 31.393006,92 Z M54.2242831,80.5 C49.4957708,80.5 45.6625542,76.638456 45.6625542,71.875 C45.6625542,67.111544 49.4957708,63.25 54.2242831,63.25 C58.9527954,63.25 62.786012,67.111544 62.786012,71.875 C62.786012,76.638456 58.9527954,80.5 54.2242831,80.5 Z M31.393006,54.625 C26.6644937,54.625 22.8312771,50.763456 22.8312771,46 C22.8312771,41.236544 26.6644937,37.375 31.393006,37.375 C36.1215183,37.375 39.9547349,41.236544 39.9547349,46 C39.9547349,50.763456 36.1215183,54.625 31.393006,54.625 Z M8.5617289,28.75 C3.8332166,28.75 0,24.888456 0,20.125 C0,15.361544 3.8332166,11.5 8.5617289,11.5 C13.2902412,11.5 17.1234578,15.361544 17.1234578,20.125 C17.1234578,24.888456 13.2902412,28.75 8.5617289,28.75 Z M31.393006,17.25 C26.6644937,17.25 22.8312771,13.388456 22.8312771,8.625 C22.8312771,3.86154403 26.6644937,0 31.393006,0 C36.1215183,0 39.9547349,3.86154403 39.9547349,8.625 C39.9547349,13.388456 36.1215183,17.25 31.393006,17.25 Z M54.2242831,28.75 C49.4957708,28.75 45.6625542,24.888456 45.6625542,20.125 C45.6625542,15.361544 49.4957708,11.5 54.2242831,11.5 C58.9527954,11.5 62.786012,15.361544 62.786012,20.125 C62.786012,24.888456 58.9527954,28.75 54.2242831,28.75 Z" id="Combined-Shape-Copy-4"></path>
            </g>
        </g>
    </g>
</svg>