<?xml version="1.0" encoding="UTF-8"?>
<svg width="146px" height="126px" viewBox="0 0 146 126" version="1.1" xmlns="http://www.w3.org/2000/svg" xmlns:xlink="http://www.w3.org/1999/xlink">
    <!-- Generator: Sketch 51.2 (57519) - http://www.bohemiancoding.com/sketch -->
    <title>signal22</title>
    <desc>Created with Sketch.</desc>
    <defs></defs>
    <g id="Page-1" stroke="none" stroke-width="1" fill="#1B5FCC" fill-rule="evenodd">
        <g id="Artboard-2" transform="translate(-1141.000000, -1538.000000)" fill="#1B5FCC">
            <g id="signal22" transform="translate(1141.000000, 1538.000000)">
                <g id="Group" fill="none">
                    <path d="M18.25,104.714 L2.607,104.714 C1.846,104.714 1.222,104.959 0.733,105.447 C0.245,105.935 0,106.56 0,107.321 L0,122.964 C0,123.725 0.244,124.35 0.733,124.838 C1.222,125.327 1.847,125.571 2.607,125.571 L18.25,125.571 C19.01,125.571 19.635,125.327 20.124,124.838 C20.613,124.35 20.857,123.725 20.857,122.964 L20.857,107.321 C20.857,106.56 20.613,105.937 20.124,105.447 C19.635,104.959 19.01,104.714 18.25,104.714 L18.25,104.714 Z" id="Shape" fill="#1B5FCC"></path>
                    <path d="M80.822,73.429 L65.179,73.429 C64.418,73.429 63.794,73.673 63.305,74.162 C62.817,74.65 62.572,75.275 62.572,76.035 L62.572,122.964 C62.572,123.725 62.816,124.35 63.305,124.838 C63.794,125.327 64.418,125.571 65.179,125.571 L80.822,125.571 C81.583,125.571 82.208,125.327 82.695,124.838 C83.183,124.35 83.429,123.725 83.429,122.964 L83.429,76.035 C83.429,75.275 83.183,74.65 82.695,74.162 C82.208,73.673 81.583,73.429 80.822,73.429 L80.822,73.429 Z" id="Shape" fill="#1B5FCC"></path>
                    <path d="M49.536,94.286 L33.893,94.286 C33.132,94.286 32.508,94.531 32.019,95.019 C31.531,95.507 31.286,96.132 31.286,96.892 L31.286,122.963 C31.286,123.724 31.53,124.349 32.019,124.837 C32.508,125.326 33.132,125.57 33.893,125.57 L49.536,125.57 C50.296,125.57 50.921,125.326 51.41,124.837 C51.898,124.349 52.143,123.724 52.143,122.963 L52.143,96.892 C52.143,96.132 51.898,95.507 51.41,95.019 C50.921,94.531 50.296,94.286 49.536,94.286 L49.536,94.286 Z" id="Shape" fill="#1B5FCC"></path>
                    <path d="M112.107,42.143 L96.464,42.143 C95.703,42.143 95.078,42.387 94.589,42.876 C94.101,43.365 93.857,43.989 93.857,44.75 L93.857,122.964 C93.857,123.725 94.101,124.35 94.589,124.838 C95.078,125.327 95.703,125.571 96.464,125.571 L112.107,125.571 C112.868,125.571 113.493,125.327 113.98,124.838 C114.47,124.35 114.714,123.725 114.714,122.964 L114.714,44.75 C114.714,43.989 114.47,43.365 113.98,42.876 C113.493,42.387 112.868,42.143 112.107,42.143 L112.107,42.143 Z" id="Shape" fill="#1B5FCC"></path>
                    <path d="M145.268,1.162 C144.778,0.673 144.155,0.429 143.393,0.429 L127.75,0.429 C126.99,0.429 126.365,0.673 125.876,1.162 C125.387,1.65 125.143,2.275 125.143,3.035 L125.143,122.964 C125.143,123.725 125.387,124.35 125.876,124.838 C126.365,125.327 126.99,125.571 127.75,125.571 L143.393,125.571 C144.155,125.571 144.778,125.327 145.268,124.838 C145.756,124.35 146,123.725 146,122.964 L146,3.035 C146,2.275 145.756,1.65 145.268,1.162 L145.268,1.162 Z" id="Shape" fill="#1B5FCC"></path>
                </g>
            </g>
        </g>
    </g>
</svg>