<?xml version="1.0" encoding="UTF-8"?>
<svg width="146px" height="126px" viewBox="0 0 146 126" version="1.1" xmlns="http://www.w3.org/2000/svg" xmlns:xlink="http://www.w3.org/1999/xlink">
    <!-- Generator: Sketch 51.2 (57519) - http://www.bohemiancoding.com/sketch -->
    <title>medkit</title>
    <desc>Created with Sketch.</desc>
    <defs></defs>
    <g id="Page-1" stroke="none" stroke-width="1" fill="none" fill-rule="evenodd">
        <g id="Artboard-2" transform="translate(-1358.000000, -1310.000000)" fill="#1B5FCC">
            <g id="medkit" transform="translate(1358.000000, 1310.000000)">
                <g id="Group" fill="none">
                    <path d="M5.377,26.663 C1.792,30.248 0,34.539 0,39.535 L0,107.321 C0,112.318 1.792,116.609 5.377,120.194 C8.962,123.779 13.253,125.571 18.25,125.571 L20.857,125.571 L20.857,21.285 L18.25,21.285 C13.252,21.285 8.961,23.078 5.377,26.663 L5.377,26.663 Z" id="Shape" fill="#1B5FCC"></path>
                    <path d="M104.285,8.25 C104.285,6.077 103.525,4.231 102.004,2.71 C100.484,1.189 98.637,0.429 96.465,0.429 L49.536,0.429 C47.364,0.429 45.517,1.189 43.996,2.71 C42.475,4.23 41.715,6.077 41.715,8.25 L41.715,21.285 L28.679,21.285 L28.679,125.571 L117.32,125.571 L117.32,21.285 L104.285,21.285 L104.285,8.25 L104.285,8.25 Z M52.143,10.857 L93.857,10.857 L93.857,21.285 L52.143,21.285 L52.143,10.857 L52.143,10.857 Z M104.285,81.25 C104.285,82.011 104.041,82.635 103.553,83.124 C103.065,83.612 102.44,83.857 101.68,83.857 L83.43,83.857 L83.43,102.107 C83.43,102.867 83.184,103.492 82.696,103.98 C82.209,104.468 81.584,104.712 80.823,104.712 L65.18,104.712 C64.419,104.712 63.795,104.468 63.306,103.98 C62.818,103.492 62.573,102.867 62.573,102.107 L62.573,83.857 L44.323,83.857 C43.562,83.857 42.938,83.612 42.449,83.124 C41.96,82.635 41.716,82.011 41.716,81.25 L41.716,65.607 C41.716,64.845 41.96,64.22 42.449,63.732 C42.937,63.244 43.562,63 44.322,63 L62.572,63 L62.572,44.75 C62.572,43.989 62.816,43.365 63.305,42.876 C63.794,42.387 64.418,42.143 65.179,42.143 L80.822,42.143 C81.583,42.143 82.208,42.387 82.695,42.876 C83.183,43.365 83.429,43.989 83.429,44.75 L83.429,63 L101.679,63 C102.439,63 103.064,63.244 103.552,63.732 C104.04,64.22 104.284,64.845 104.284,65.607 L104.284,81.25 L104.285,81.25 Z" id="Shape" fill="#1B5FCC"></path>
                    <path d="M140.623,26.663 C137.038,23.078 132.747,21.285 127.75,21.285 L125.143,21.285 L125.143,125.571 L127.75,125.571 C132.747,125.571 137.038,123.779 140.623,120.194 C144.207,116.609 146,112.318 146,107.321 L146,39.535 C146,34.539 144.207,30.248 140.623,26.663 L140.623,26.663 Z" id="Shape" fill="#1B5FCC"></path>
                </g>
            </g>
        </g>
    </g>
</svg>