<?xml version="1.0" encoding="UTF-8"?>
<svg width="158px" height="106px" viewBox="0 0 158 106" version="1.1" xmlns="http://www.w3.org/2000/svg" xmlns:xlink="http://www.w3.org/1999/xlink">
    <!-- Generator: Sketch 51.2 (57519) - http://www.bohemiancoding.com/sketch -->
    <title>money10</title>
    <desc>Created with Sketch.</desc>
    <defs></defs>
    <g id="Page-1" stroke="none" stroke-width="1" fill="none" fill-rule="evenodd">
        <g id="Artboard-2" transform="translate(-785.000000, -1320.000000)" fill="#1B5FCC">
            <g id="money10" transform="translate(786.000000, 1321.000000)">
                <g id="Group" fill="none">
                    <path d="M154.666,1.405 C153.635,0.373 152.412,-0.143 151,-0.143 L5,-0.143 C3.588,-0.143 2.365,0.373 1.333,1.405 C0.302,2.437 -0.215,3.659 -0.215,5.071 L-0.215,98.927 C-0.215,100.339 0.302,101.562 1.333,102.593 C2.365,103.625 3.588,104.142 5,104.142 L151,104.142 C152.412,104.142 153.635,103.625 154.666,102.593 C155.698,101.562 156.215,100.339 156.215,98.927 L156.215,5.071 C156.215,3.659 155.698,2.438 154.666,1.405 L154.666,1.405 Z M145.785,72.857 C140.027,72.857 135.113,74.894 131.038,78.966 C126.964,83.039 124.928,87.955 124.928,93.712 L31.071,93.712 C31.071,87.955 29.034,83.039 24.961,78.966 C20.887,74.892 15.972,72.857 10.214,72.857 L10.214,31.142 C15.972,31.142 20.887,29.105 24.961,25.032 C29.034,20.959 31.071,16.043 31.071,10.285 L124.93,10.285 C124.93,16.043 126.965,20.959 131.039,25.032 C135.113,29.105 140.027,31.142 145.785,31.142 L145.785,72.857 L145.785,72.857 Z" id="Shape" fill="#1B5FCC"></path>
                    <path d="M97.512,29.514 C95.421,26.146 92.664,23.403 89.242,21.285 C85.82,19.167 82.073,18.108 77.999,18.108 C73.925,18.108 70.178,19.167 66.756,21.285 C63.334,23.403 60.577,26.146 58.486,29.514 C56.394,32.881 54.779,36.52 53.638,40.431 C52.497,44.342 51.927,48.199 51.927,52 C51.927,55.801 52.497,59.658 53.638,63.568 C54.779,67.478 56.394,71.119 58.486,74.486 C60.577,77.855 63.334,80.596 66.756,82.715 C70.178,84.834 73.925,85.893 77.999,85.893 C82.073,85.893 85.82,84.834 89.242,82.715 C92.664,80.596 95.421,77.854 97.512,74.486 C99.604,71.119 101.219,67.478 102.36,63.568 C103.502,59.658 104.071,55.801 104.071,52 C104.071,48.199 103.502,44.342 102.36,40.431 C101.219,36.52 99.604,32.881 97.512,29.514 L97.512,29.514 Z M93.643,72.857 L62.356,72.857 L62.356,65.035 L72.783,65.035 L72.783,41.571 L72.62,41.571 C71.914,42.657 70.421,44.206 68.14,46.215 L61.867,39.697 L73.925,28.535 L83.214,28.535 L83.214,65.035 L93.643,65.035 L93.643,72.857 L93.643,72.857 Z" id="Shape" fill="#1B5FCC"></path>
                </g>
            </g>
        </g>
    </g>
</svg>