<?xml version="1.0" standalone="no"?>
<!DOCTYPE svg PUBLIC "-//W3C//DTD SVG 20010904//EN"
 "http://www.w3.org/TR/2001/REC-SVG-20010904/DTD/svg10.dtd">
<svg version="1.0" xmlns="http://www.w3.org/2000/svg"
 width="592.000000pt" height="179.000000pt" viewBox="0 0 592.000000 179.000000"
 preserveAspectRatio="xMidYMid meet">

<g transform="translate(0.000000,179.000000) scale(0.100000,-0.100000)"
fill="#000000" stroke="none">
<path d="M920 1738 c0 -2 -24 -96 -54 -210 -52 -202 -53 -208 -32 -208 11 0
26 4 32 8 12 7 104 354 104 391 0 16 -6 21 -25 21 -14 0 -25 -1 -25 -2z"/>
<path d="M566 1574 c-4 -11 21 -60 76 -148 77 -124 84 -132 110 -128 15 2 28
9 27 16 0 6 -38 70 -83 141 -83 130 -115 159 -130 119z"/>
<path d="M845 1306 l-450 -112 -3 -410 -2 -409 447 -109 c247 -60 454 -112
461 -114 9 -3 12 62 12 307 l0 311 -125 0 -125 0 0 -80 0 -80 40 0 40 0 0
-106 c0 -105 0 -106 -22 -101 -13 3 -152 31 -310 63 l-288 57 0 261 0 262 298
59 c163 32 303 60 310 63 9 3 12 -19 12 -93 l0 -96 48 6 c26 3 64 8 85 11 l37
6 0 209 c0 115 -3 208 -7 208 -5 -1 -210 -52 -458 -113z"/>
<path d="M1340 1210 l0 -210 65 0 65 0 0 210 0 210 -65 0 -65 0 0 -210z"/>
<path d="M1889 1021 c-24 -19 -24 -21 -24 -231 0 -270 -17 -250 210 -250 l164
0 20 26 c18 23 21 41 21 135 l0 109 -105 0 -105 0 0 -40 0 -40 65 0 65 0 0
-55 0 -55 -130 0 -130 0 0 170 0 170 130 0 130 0 0 -30 c0 -28 2 -30 40 -30
l40 0 0 45 c0 35 -6 52 -25 70 -24 24 -28 25 -183 25 -142 0 -162 -2 -183 -19z"/>
<path d="M2522 988 c-11 -29 -48 -125 -82 -213 -34 -88 -68 -177 -76 -197
l-13 -38 42 0 43 0 19 55 18 55 108 0 108 0 19 -52 c19 -51 21 -53 61 -56 22
-2 41 0 41 5 -1 4 -42 116 -93 248 l-93 240 -41 3 -41 3 -20 -53z m65 -256
c-38 -2 -71 -1 -73 1 -4 3 16 61 56 162 12 30 12 29 49 -65 l37 -95 -69 -3z"/>
<path d="M2831 973 c10 -38 43 -150 71 -251 l52 -183 45 3 45 3 29 100 c15 55
38 132 49 170 l21 70 38 -135 c22 -74 44 -152 50 -172 9 -37 11 -38 54 -38
l44 0 20 68 c44 150 121 421 121 426 0 3 -18 6 -40 6 l-39 0 -20 -67 c-11 -38
-35 -121 -53 -187 l-32 -119 -51 184 -52 184 -40 3 -40 3 -48 -173 c-26 -95
-51 -176 -54 -180 -4 -4 -29 73 -56 172 l-50 180 -42 0 -42 0 20 -67z"/>
<path d="M3540 790 l0 -250 40 0 40 0 0 106 0 106 43 -39 c24 -21 78 -69 120
-106 l75 -68 57 3 56 3 -137 124 -137 125 44 40 c24 23 85 78 134 123 l90 82
-60 0 -60 0 -110 -100 -110 -101 -3 101 -3 101 -39 0 -40 0 0 -250z"/>
<path d="M4020 789 l0 -250 170 3 170 3 27 28 c26 25 28 34 28 101 0 64 -3 78
-23 99 -22 24 -23 26 -8 55 20 38 21 124 2 161 -23 44 -53 51 -216 51 l-150 0
0 -251z m288 159 c7 -7 12 -30 12 -53 0 -23 -5 -46 -12 -53 -8 -8 -47 -12
-110 -12 l-98 0 0 65 0 65 98 0 c63 0 102 -4 110 -12z m22 -217 c5 -11 10 -32
10 -46 0 -60 -10 -65 -130 -65 l-110 0 0 65 0 65 110 0 c98 0 110 -2 120 -19z"/>
<path d="M4539 1021 c-24 -19 -24 -23 -27 -223 -3 -195 -2 -205 18 -231 l21
-27 173 0 c234 0 216 -21 216 250 l0 209 -26 20 c-25 19 -40 21 -189 21 -145
0 -165 -2 -186 -19z m321 -231 l0 -170 -135 0 -135 0 0 170 0 170 135 0 135 0
0 -170z"/>
<path d="M5020 1034 c0 -3 38 -59 85 -124 l85 -119 -85 -117 c-47 -65 -85
-122 -85 -127 0 -4 21 -7 47 -5 46 3 48 4 104 83 32 44 63 80 69 80 6 0 37
-36 69 -80 56 -79 58 -80 104 -83 26 -2 47 1 47 5 0 4 -38 61 -84 126 l-85
118 85 118 c46 65 84 121 84 125 0 3 -21 6 -47 6 l-48 0 -59 -85 c-33 -47 -63
-85 -66 -85 -3 0 -33 38 -66 85 l-59 85 -47 0 c-27 0 -48 -3 -48 -6z"/>
<path d="M550 775 l0 -245 55 0 55 0 0 239 0 239 -22 6 c-13 3 -38 6 -55 6
l-33 0 0 -245z"/>
<path d="M1340 460 l0 -310 65 0 65 0 0 310 0 310 -65 0 -65 0 0 -310z"/>
</g>
</svg>
