<?xml version="1.0" encoding="UTF-8"?>
<svg width="341px" height="69px" viewBox="0 0 341 69" version="1.1" xmlns="http://www.w3.org/2000/svg" xmlns:xlink="http://www.w3.org/1999/xlink">
    <!-- Generator: Sketch 48.2 (47327) - http://www.bohemiancoding.com/sketch -->
    <title>Staples</title>
    <desc>Created with Sketch.</desc>
    <defs></defs>
    <g id="Page-1" stroke="none" stroke-width="1" fill="none" fill-rule="evenodd">
        <g id="Staples" transform="translate(-1.000000, -1.000000)" fill="#EE2223" fill-rule="nonzero">
            <g id="g3340" transform="translate(0.250000, 0.050000)">
                <path d="M26.81,0.976242424 L26.79125,0.972492424 C3.29125,0.983742424 0.75,16.2587424 0.7425,22.8249924 L13.1625,22.8162424 C13.23875,19.7049924 14.63,12.4637424 25.85875,12.4637424 C29.45375,12.4587424 32.31125,13.0024924 34.385,14.0737424 C37.03875,15.4424924 38.38375,17.6824924 38.38375,20.7349924 C38.37625,25.5512424 34.26875,26.9399924 27.505,28.6512424 L21.01,30.2774924 C11.05875,32.7637424 1.6675,35.1112424 1.66375,49.5012424 C1.663625,52.3212424 2.21625,57.7362424 5.96125,62.2899924 C9.94875,67.1487424 16.38125,69.6187424 25.065,69.6137424 C33.3725,69.6162424 39.71375,67.0712424 43.9275,62.0512424 C48.29375,56.8687424 48.8225,50.8412424 48.85,48.4899924 L36.43125,48.4849924 C36.11875,51.1237424 35.29125,58.1349924 24.155,58.1337424 C21.42625,58.1299924 18.9425,57.5349924 17.13875,56.4649924 C14.885,55.1212424 13.74375,53.1099924 13.74625,50.4849924 C13.74875,45.4162424 17.69875,44.4287424 20.05875,43.8387424 L34.825,39.9374924 C43.11875,37.7662424 50.795,34.1249924 50.8,22.3624924 C50.805,13.9712424 47.4425,7.89624242 40.805,4.30124242 C35.28,1.30374242 29.17375,0.979992424 26.80625,0.977492424" id="path3342" transform="translate(25.771253, 35.293121) scale(-1, 1) rotate(-180.000000) translate(-25.771253, -35.293121) "></path>
                <polyline id="path3344" transform="translate(74.723750, 35.303625) scale(-1, 1) rotate(-180.000000) translate(-74.723750, -35.303625) " points="81.21 2.69725 68.2825 2.697375 68.28625 56.147375 49.94625 56.154875 49.94625 67.911125 99.49875 67.894875 99.50125 56.151125 81.21125 56.151125 81.211125 2.696125"></polyline>
                <polyline id="path3346" transform="translate(265.548125, 35.293750) scale(-1, 1) rotate(-180.000000) translate(-265.548125, -35.293750) " points="288.68 2.6875 242.43375 2.6875 242.4125 67.9 287.23 67.9 287.23625 56.08375 255.09 56.0875 255.09625 42.6875 284.6325 42.69 284.6325 30.92875 255.095 30.92875 255.10375 14.48375 288.68375 14.48375 288.68 2.69"></polyline>
                <path d="M108.41,27.56025 L123.485,27.560125 L116.06125,52.925125 L108.405,27.561375 L108.41,27.56025 Z M130.9925,2.705125 L127.11,16.072625 L104.9425,16.067625 L100.72875,2.705125 L87.11,2.705125 L108.78125,67.905125 L123.58,67.897625 L145.0425,2.710125 L130.995,2.710125 L130.9925,2.705125 Z" id="path3348" transform="translate(116.076250, 35.305125) scale(-1, 1) rotate(-180.000000) translate(-116.076250, -35.305125) "></path>
                <path d="M160.77,37.5875 L172.36375,37.58 C181.67875,37.585 181.68,44.58125 181.68125,47.565 C181.67375,53.84 178.485,56.4025 170.6725,56.4025 L160.7625,56.4025 L160.77,37.59 M160.77125,2.71 L147.84375,2.71 L147.8175,67.8975 L175.63625,67.8875 C187.3275,67.887625 194.58625,59.86625 194.58625,46.95 C194.586375,43.58625 193.65375,38.505 191.02125,34.3125 C187.59,28.86375 182.24625,26.0975 175.13875,26.09875 L160.75625,26.09625 L160.7675,2.71125" id="path3350" transform="translate(171.201875, 35.303750) scale(-1, 1) rotate(-180.000000) translate(-171.201875, -35.303750) "></path>
                <path d="M197.43,8.2075 L197.42375,55.895 C197.4175,62.53 202.995,67.91 209.86875,67.91 C216.42375,67.9 221.5275,63.3775 222.43125,57.03375 L226.5675,35.78375 L214.73625,33.48125 L210.355,55.97625 C210.355,55.97625 210.325,56.25375 210.05,56.235 C209.88625,56.2175 209.845,56.035 209.845,55.92875 L209.875,12.76125 L239.65375,12.7675 L239.65125,0.9575 L203.965,0.96375 C200.295,0.96375 197.4375,4.6825 197.43375,8.21125" id="path3352" transform="translate(218.538747, 34.433750) scale(-1, 1) rotate(-180.000000) translate(-218.538747, -34.433750) "></path>
                <path d="M316.93,0.976242424 L316.91125,0.972492424 C293.41125,0.983742424 290.87125,16.2587424 290.8625,22.8249924 L303.2825,22.8162424 C303.35875,19.7049924 304.75125,12.4637424 315.98,12.4637424 C319.575,12.4587424 322.4325,13.0024924 324.505,14.0737424 C327.15875,15.4424924 328.505,17.6824924 328.505,20.7349924 C328.49625,25.5512424 324.39,26.9399924 317.62625,28.6512424 L311.13,30.2774924 C301.18,32.7637424 291.7875,35.1112424 291.785,49.5012424 C291.784875,52.3212424 292.3375,57.7362424 296.0825,62.2899924 C300.07,67.1487424 306.5025,69.6187424 315.18625,69.6137424 C323.49375,69.6162424 329.83375,67.0712424 334.04875,62.0512424 C338.41375,56.8687424 338.94375,50.8412424 338.97125,48.4899924 L326.5525,48.4849924 C326.24,51.1237424 325.41125,58.1349924 314.275,58.1337424 C311.54625,58.1299924 309.06375,57.5349924 307.25875,56.4649924 C305.00625,55.1212424 303.865,53.1099924 303.86625,50.4849924 C303.87,45.4162424 307.82,44.4287424 310.17875,43.8387424 L324.94375,39.9374924 C333.2375,37.7662424 340.915,34.1249924 340.92,22.3624924 C340.92375,13.9712424 337.56125,7.89624242 330.925,4.30124242 C325.4,1.30374242 319.2925,0.979992424 316.925,0.977492424" id="path3358" transform="translate(315.891252, 35.293121) scale(-1, 1) rotate(-180.000000) translate(-315.891252, -35.293121) "></path>
            </g>
        </g>
    </g>
</svg>