<?xml version="1.0" encoding="UTF-8"?>
<svg width="180px" height="98px" viewBox="0 0 180 98" version="1.1" xmlns="http://www.w3.org/2000/svg" xmlns:xlink="http://www.w3.org/1999/xlink">
    <!-- Generator: Sketch 48.2 (47327) - http://www.bohemiancoding.com/sketch -->
    <title>runa-vector</title>
    <desc>Created with Sketch.</desc>
    <defs></defs>
    <g id="Page-1" stroke="none" stroke-width="1" fill="none" fill-rule="evenodd">
        <g id="runa-vector" fill="#7A6FF0" fill-rule="nonzero">
            <path d="M146.32,49.29 C146.315918,53.0784864 144.028511,56.4909109 140.52569,57.9341327 C137.022869,59.3773545 132.995493,58.5667273 130.323804,55.8807044 C127.652114,53.1946814 126.863046,49.1630264 128.324989,45.6679772 C129.786932,42.1729279 133.211546,39.9038121 137,39.92 C142.155371,39.9475104 146.320073,44.1345554 146.32,49.29 Z M179.24,29.5 L179.24,68.37 C179.190583,84.6418869 166.011887,97.8205828 149.74,97.87 C81.2466667,97.9566667 41.3333333,98 30,98 C13,98 0,85 1.83852933e-15,69.5036814 C2.16041331e-15,66.62953 2.16041331e-15,62.3183028 1.83852933e-15,56.57 L0,29.5 C0.049417241,13.2281131 13.2281131,0.049417241 29.5,0 L149.74,0 C166.011887,0.049417241 179.190583,13.2281131 179.24,29.5 Z M47.85,40.5 L47.85,32.9997786 L45.5,33 C42.1939711,32.9834194 38.9501183,33.8983522 36.14,35.64 L36.14,34.23 C36.14,33.6777153 35.6922847,33.23 35.14,33.23 L29.58,33.23 C29.0277153,33.23 28.58,33.6777153 28.58,34.23 L28.58,49.23 L28.58,65 C28.58,65.5522847 29.0277153,66 29.58,66 L35.12,66 C35.6722847,66 36.12,65.5522847 36.12,65 L36.12,49.27 C36.12,44.11 40.32,40.54 45.48,40.54 L47.85,40.5 Z M81.5,34.24 C81.5,33.6877153 81.0522847,33.24 80.5,33.24 L74.94,33.24 C74.3877153,33.24 73.94,33.6877153 73.94,34.24 L73.94,51.59 C73.9550152,53.4692932 73.2376727,55.2805832 71.94,56.64 C70.6855389,57.9358842 68.9535035,58.6590723 67.15,58.64 C65.3110208,58.6168459 63.5588438,57.8541086 62.2888384,56.5238955 C61.0188329,55.1936824 60.3380123,53.40808 60.4,51.57 L60.4,34.23 C60.4,33.6777153 59.9522847,33.23 59.4,33.23 L53.87,33.23 C53.3177153,33.23 52.87,33.6777153 52.87,34.23 L52.87,51.59 C52.7867135,55.4387782 54.2555003,59.1592037 56.9454681,61.9131288 C59.6354359,64.6670539 63.3203274,66.2228417 67.17,66.23 C71.0379802,66.2537742 74.7451507,64.684104 77.42,61.89 C80.0657936,59.1166634 81.5289719,55.4228554 81.5,51.59 L81.5,34.24 Z M115.25,65 L115.25,47 C115.333355,43.1477578 113.861847,39.424257 111.167533,36.6697351 C108.47322,33.9152131 104.783143,32.3617871 100.93,32.36 C97.0620198,32.3362258 93.3548493,33.905896 90.68,36.7 C88.0342064,39.4733366 86.5710281,43.1671446 86.6,47 L86.6,65 C86.6,65.5522847 87.0477153,66 87.6,66 L93.14,66 C93.6922847,66 94.14,65.5522847 94.14,65 L94.14,47 C94.1249848,45.1207068 94.8423273,43.3094168 96.14,41.95 C97.3944611,40.6541158 99.1264965,39.9309277 100.93,39.95 C102.765396,39.9732821 104.514418,40.7332725 105.783828,42.0591007 C107.053238,43.3849289 107.736502,45.1653257 107.68,47 L107.68,65 C107.68,65.5522847 108.127715,66 108.68,66 L114.22,66 C114.490375,66.0081149 114.752505,65.9063515 114.946581,65.7179284 C115.140657,65.5295053 115.250122,65.2704971 115.25,65 Z M153.73,65 L153.73,48.66 C153.722513,47.056614 153.479932,45.4629927 153.01,43.93 C150.711036,37.0419561 144.277667,32.3853188 137.016169,32.3532554 C129.754671,32.321192 123.28043,36.9208353 120.920728,43.7883087 C118.561026,50.655782 120.8408,58.2633534 126.588415,62.7012932 C132.336029,67.1392331 140.272875,67.4202814 146.32,63.4 L146.32,65 C146.32,65.5522847 146.767715,66 147.32,66 L152.69,66 C152.962077,66.0108919 153.22683,65.9103633 153.423109,65.7216334 C153.619388,65.5329035 153.730218,65.2722947 153.73,65 Z" id="Shape"></path>
        </g>
    </g>
</svg>