<?xml version="1.0" encoding="UTF-8"?>
<svg width="223px" height="28px" viewBox="0 0 223 28" version="1.1" xmlns="http://www.w3.org/2000/svg" xmlns:xlink="http://www.w3.org/1999/xlink">
    <!-- Generator: Sketch 48.2 (47327) - http://www.bohemiancoding.com/sketch -->
    <title>Group 7</title>
    <desc>Created with Sketch.</desc>
    <defs></defs>
    <g id="02-work" stroke="none" stroke-width="1" fill="none" fill-rule="evenodd" transform="translate(-136.000000, -2940.000000)">
        <g id="footer" transform="translate(0.000000, 2592.000000)">
            <g id="Group-5" transform="translate(0.000000, 240.000000)">
                <g id="Group-7" transform="translate(138.000000, 110.000000)">
                    <path d="M86.8251953,21 L85.2666016,21 L85.2666016,10.7763672 L85.1552734,10.7763672 L80.934082,20.9072266 L79.5239258,20.9072266 L75.3027344,10.7763672 L75.1914062,10.7763672 L75.1914062,21 L73.6328125,21 L73.6328125,7.61279297 L75.5717773,7.61279297 L80.1547852,18.6899414 L80.3032227,18.6899414 L84.8862305,7.61279297 L86.8251953,7.61279297 L86.8251953,21 Z M100.425781,19.4970703 L100.425781,21 L92.1318359,21 L92.1318359,7.61279297 L100.425781,7.61279297 L100.425781,9.11572266 L93.8017578,9.11572266 L93.8017578,13.4111328 L100.08252,13.4111328 L100.08252,14.8955078 L93.8017578,14.8955078 L93.8017578,19.4970703 L100.425781,19.4970703 Z M104.702637,17.5024414 L106.391113,17.5024414 C106.496257,18.2013381 106.85807,18.7579732 107.476562,19.1723633 C108.095055,19.5867534 108.880529,19.7939453 109.833008,19.7939453 C110.736007,19.7939453 111.482826,19.5759299 112.073486,19.1398926 C112.664147,18.7038552 112.959473,18.1549512 112.959473,17.4931641 C112.959473,16.9241508 112.743003,16.451011 112.310059,16.0737305 C111.877114,15.6964499 111.199874,15.3933931 110.27832,15.1645508 L108.562012,14.7192383 C107.349766,14.4099919 106.468427,13.9693225 105.917969,13.3972168 C105.36751,12.8251111 105.092285,12.0628303 105.092285,11.1103516 C105.092285,9.97232504 105.52677,9.05233098 106.395752,8.3503418 C107.264734,7.64835261 108.407382,7.29736328 109.82373,7.29736328 C111.11638,7.29736328 112.198726,7.64371398 113.070801,8.33642578 C113.942875,9.02913758 114.412923,9.91666125 114.480957,10.9990234 L112.801758,10.9990234 C112.684244,10.3124966 112.357994,9.77596222 111.822998,9.3894043 C111.288002,9.00284637 110.603032,8.80957031 109.768066,8.80957031 C108.877437,8.80957031 108.161542,9.01366983 107.620361,9.421875 C107.07918,9.83008017 106.808594,10.3743456 106.808594,11.0546875 C106.808594,11.5804063 107.008055,12.0071598 107.406982,12.3349609 C107.80591,12.6627621 108.466141,12.944172 109.387695,13.1791992 L110.788574,13.550293 C112.173998,13.8966489 113.16821,14.3605114 113.77124,14.9418945 C114.374271,15.5232776 114.675781,16.3056591 114.675781,17.2890625 C114.675781,18.5198629 114.225835,19.4986129 113.325928,20.2253418 C112.426021,20.9520707 111.209155,21.3154297 109.675293,21.3154297 C108.258945,21.3154297 107.097742,20.969079 106.19165,20.2763672 C105.285559,19.5836554 104.789226,18.6590227 104.702637,17.5024414 Z M130.029785,21 L128.359863,21 L128.359863,14.9047852 L121.012207,14.9047852 L121.012207,21 L119.342285,21 L119.342285,7.61279297 L121.012207,7.61279297 L121.012207,13.4018555 L128.359863,13.4018555 L128.359863,7.61279297 L130.029785,7.61279297 L130.029785,21 Z M141.951172,17.5024414 L143.639648,17.5024414 C143.744792,18.2013381 144.106605,18.7579732 144.725098,19.1723633 C145.34359,19.5867534 146.129064,19.7939453 147.081543,19.7939453 C147.984542,19.7939453 148.731361,19.5759299 149.322021,19.1398926 C149.912682,18.7038552 150.208008,18.1549512 150.208008,17.4931641 C150.208008,16.9241508 149.991539,16.451011 149.558594,16.0737305 C149.125649,15.6964499 148.44841,15.3933931 147.526855,15.1645508 L145.810547,14.7192383 C144.598301,14.4099919 143.716962,13.9693225 143.166504,13.3972168 C142.616045,12.8251111 142.34082,12.0628303 142.34082,11.1103516 C142.34082,9.97232504 142.775305,9.05233098 143.644287,8.3503418 C144.513269,7.64835261 145.655917,7.29736328 147.072266,7.29736328 C148.364915,7.29736328 149.447261,7.64371398 150.319336,8.33642578 C151.191411,9.02913758 151.661458,9.91666125 151.729492,10.9990234 L150.050293,10.9990234 C149.932779,10.3124966 149.606529,9.77596222 149.071533,9.3894043 C148.536537,9.00284637 147.851567,8.80957031 147.016602,8.80957031 C146.125972,8.80957031 145.410078,9.01366983 144.868896,9.421875 C144.327715,9.83008017 144.057129,10.3743456 144.057129,11.0546875 C144.057129,11.5804063 144.25659,12.0071598 144.655518,12.3349609 C145.054445,12.6627621 145.714676,12.944172 146.63623,13.1791992 L148.037109,13.550293 C149.422533,13.8966489 150.416745,14.3605114 151.019775,14.9418945 C151.622806,15.5232776 151.924316,16.3056591 151.924316,17.2890625 C151.924316,18.5198629 151.47437,19.4986129 150.574463,20.2253418 C149.674556,20.9520707 148.45769,21.3154297 146.923828,21.3154297 C145.50748,21.3154297 144.346277,20.969079 143.440186,20.2763672 C142.534094,19.5836554 142.037761,18.6590227 141.951172,17.5024414 Z M161.739746,21 L160.069824,21 L160.069824,9.11572266 L155.755859,9.11572266 L155.755859,7.61279297 L166.053711,7.61279297 L166.053711,9.11572266 L161.739746,9.11572266 L161.739746,21 Z M172.241699,7.61279297 L172.241699,16.2871094 C172.241699,17.2952524 172.560218,18.1286588 173.197266,18.7873535 C173.834313,19.4460482 174.731114,19.7753906 175.887695,19.7753906 C177.050462,19.7753906 177.948809,19.4460482 178.582764,18.7873535 C179.216719,18.1286588 179.533691,17.2952524 179.533691,16.2871094 L179.533691,7.61279297 L181.203613,7.61279297 L181.203613,16.3984375 C181.203613,17.8271556 180.733566,19.0038202 179.793457,19.9284668 C178.853348,20.8531133 177.551441,21.3154297 175.887695,21.3154297 C174.230135,21.3154297 172.929774,20.8531133 171.986572,19.9284668 C171.043371,19.0038202 170.571777,17.8271556 170.571777,16.3984375 L170.571777,7.61279297 L172.241699,7.61279297 Z M186.556641,7.61279297 L191.148926,7.61279297 C193.134287,7.61279297 194.683588,8.2003522 195.796875,9.37548828 C196.910162,10.5506244 197.466797,12.1926978 197.466797,14.3017578 C197.466797,16.4108178 196.911708,18.0544375 195.801514,19.232666 C194.691319,20.4108946 193.140472,21 191.148926,21 L186.556641,21 L186.556641,7.61279297 Z M188.226562,9.11572266 L188.226562,19.4970703 L191.037598,19.4970703 C192.53435,19.4970703 193.695553,19.042485 194.52124,18.1333008 C195.346928,17.2241165 195.759766,15.9531332 195.759766,14.3203125 C195.759766,12.6813069 195.343836,11.4041387 194.511963,10.4887695 C193.68009,9.57340037 192.52198,9.11572266 191.037598,9.11572266 L188.226562,9.11572266 Z M203.914551,21 L202.244629,21 L202.244629,7.61279297 L203.914551,7.61279297 L203.914551,21 Z M214.852539,7.29736328 C216.757497,7.29736328 218.254226,7.92821635 219.342773,9.18994141 C220.431321,10.4516665 220.975586,12.1555882 220.975586,14.3017578 C220.975586,16.4417425 220.432867,18.1456642 219.347412,19.4135742 C218.261957,20.6814842 216.763681,21.3154297 214.852539,21.3154297 C212.935212,21.3154297 211.430751,20.6814842 210.339111,19.4135742 C209.247472,18.1456642 208.70166,16.4417425 208.70166,14.3017578 C208.70166,12.1494033 209.253657,10.4439353 210.357666,9.18530273 C211.461675,7.92667014 212.959951,7.29736328 214.852539,7.29736328 Z M214.852539,8.83740234 C213.491855,8.83740234 212.412602,9.32909665 211.614746,10.3125 C210.816891,11.2959034 210.417969,12.6256427 210.417969,14.3017578 C210.417969,15.9593182 210.809159,17.2859651 211.591553,18.2817383 C212.373946,19.2775115 213.460931,19.7753906 214.852539,19.7753906 C216.225593,19.7753906 217.3033,19.2775115 218.085693,18.2817383 C218.868087,17.2859651 219.259277,15.9593182 219.259277,14.3017578 C219.259277,12.6256427 218.86654,11.2959034 218.081055,10.3125 C217.295569,9.32909665 216.219408,8.83740234 214.852539,8.83740234 Z" id="MESH-STUDIO" fill="#000000"></path>
                    <g id="Group-4" stroke="#000000" stroke-width="3">
                        <path d="M1.00010993,24.1231652 L30.2452711,24.1231652 C30.7975558,24.1231652 31.2452711,23.6754499 31.2452711,23.1231652 C31.2452711,22.927088 31.1876275,22.7353371 31.0795099,22.5717619 L16.4569293,0.448706671 C16.1523977,-0.0120307201 15.5320246,-0.138660526 15.0712872,0.165871084 C14.9589231,0.240139895 14.8627205,0.336342577 14.7884517,0.448706671 L0.165871084,22.5717619 C-0.138660526,23.0324993 -0.0120307201,23.6528724 0.448706671,23.957404 C0.612281879,24.0655216 0.804032738,24.1231652 1.00010993,24.1231652 Z" id="Path-2"></path>
                        <path d="M17.0001099,24.1231652 L46.2452711,24.1231652 C46.7975558,24.1231652 47.2452711,23.6754499 47.2452711,23.1231652 C47.2452711,22.927088 47.1876275,22.7353371 47.0795099,22.5717619 L32.4569293,0.448706671 C32.1523977,-0.0120307201 31.5320246,-0.138660526 31.0712872,0.165871084 C30.9589231,0.240139895 30.8627205,0.336342577 30.7884517,0.448706671 L16.1658711,22.5717619 C15.8613395,23.0324993 15.9879693,23.6528724 16.4487067,23.957404 C16.6122819,24.0655216 16.8040327,24.1231652 17.0001099,24.1231652 Z" id="Path-2-Copy"></path>
                    </g>
                </g>
            </g>
        </g>
    </g>
</svg>