<?xml version="1.0" encoding="UTF-8"?>
<svg width="349px" height="92px" viewBox="0 0 349 92" version="1.1" xmlns="http://www.w3.org/2000/svg" xmlns:xlink="http://www.w3.org/1999/xlink">
    <!-- Generator: Sketch 48.2 (47327) - http://www.bohemiancoding.com/sketch -->
    <title>Combined Shape Copy 2</title>
    <desc>Created with Sketch.</desc>
    <defs>
        <linearGradient x1="100%" y1="50%" x2="0%" y2="50%" id="linearGradient-1">
            <stop stop-color="#000000" offset="0%"></stop>
            <stop stop-color="#000000" offset="76.7975119%"></stop>
            <stop stop-color="#48B9D6" offset="81.661513%"></stop>
            <stop stop-color="#84EEF1" offset="100%"></stop>
        </linearGradient>
    </defs>
    <g id="Artboard" stroke="none" stroke-width="1" fill="none" fill-rule="evenodd" transform="translate(-405.000000, -412.000000)">
        <g id="Group" transform="translate(324.000000, 412.000000)" fill="url(#linearGradient-1)">
            <g id="Group-3" transform="translate(81.000000, 0.000000)">
                <path d="M8.5617289,80.5 C3.8332166,80.5 0,76.638456 0,71.875 C0,67.111544 3.8332166,63.25 8.5617289,63.25 C13.2902412,63.25 17.1234578,67.111544 17.1234578,71.875 C17.1234578,76.638456 13.2902412,80.5 8.5617289,80.5 Z M31.393006,92 C26.6644937,92 22.8312771,88.138456 22.8312771,83.375 C22.8312771,78.611544 26.6644937,74.75 31.393006,74.75 C36.1215183,74.75 39.9547349,78.611544 39.9547349,83.375 C39.9547349,88.138456 36.1215183,92 31.393006,92 Z M54.2242831,80.5 C49.4957708,80.5 45.6625542,76.638456 45.6625542,71.875 C45.6625542,67.111544 49.4957708,63.25 54.2242831,63.25 C58.9527954,63.25 62.786012,67.111544 62.786012,71.875 C62.786012,76.638456 58.9527954,80.5 54.2242831,80.5 Z M31.393006,54.625 C26.6644937,54.625 22.8312771,50.763456 22.8312771,46 C22.8312771,41.236544 26.6644937,37.375 31.393006,37.375 C36.1215183,37.375 39.9547349,41.236544 39.9547349,46 C39.9547349,50.763456 36.1215183,54.625 31.393006,54.625 Z M8.5617289,28.75 C3.8332166,28.75 0,24.888456 0,20.125 C0,15.361544 3.8332166,11.5 8.5617289,11.5 C13.2902412,11.5 17.1234578,15.361544 17.1234578,20.125 C17.1234578,24.888456 13.2902412,28.75 8.5617289,28.75 Z M31.393006,17.25 C26.6644937,17.25 22.8312771,13.388456 22.8312771,8.625 C22.8312771,3.86154403 26.6644937,0 31.393006,0 C36.1215183,0 39.9547349,3.86154403 39.9547349,8.625 C39.9547349,13.388456 36.1215183,17.25 31.393006,17.25 Z M54.2242831,28.75 C49.4957708,28.75 45.6625542,24.888456 45.6625542,20.125 C45.6625542,15.361544 49.4957708,11.5 54.2242831,11.5 C58.9527954,11.5 62.786012,15.361544 62.786012,20.125 C62.786012,24.888456 58.9527954,28.75 54.2242831,28.75 Z M115.499718,54.7948776 C115.499718,57.1264847 113.794839,59.0466317 109.839519,59.0466317 C105.338637,59.0466317 101.656098,56.6464479 99.7466328,54.5205709 L94.7001898,60.4867419 C96.8824354,62.7497724 101.792488,65.9042996 109.430348,65.9042996 C119.727819,65.9042996 123.887725,59.4580918 123.887725,54.3148408 C123.887725,41.4910018 105.475028,44.028339 105.475028,37.2392477 C105.475028,34.9762173 107.248102,33.2618004 110.657861,33.2618004 C113.931229,33.2618004 116.659036,34.9762173 118.227525,36.6906343 L123.614944,31.2045 C121.159918,28.4614328 116.863622,26.3355558 110.862446,26.3355558 C102.201659,26.3355558 97.1552161,31.7531134 97.1552161,37.7192845 C97.1552161,50.5431235 115.499718,48.074363 115.499718,54.7948776 Z M143.45974,65.5614162 C149.11994,65.5614162 151.915942,64.327036 153.279846,63.4355391 L151.029405,56.9893313 C149.733697,57.9494048 147.824232,58.5665949 145.641986,58.5665949 C142.845984,58.5665949 141.072909,57.057908 141.072909,53.7662274 L141.072909,33.5361071 L150.96121,33.5361071 L150.96121,27.0213226 L141.072909,27.0213226 L141.072909,17.2148575 L135.617295,17.2148575 L132.821293,26.5412858 L127.63846,28.2557028 L127.63846,33.5361071 L132.821293,33.5361071 L132.821293,53.7662274 C132.821293,62.2697356 137.049394,65.5614162 143.45974,65.5614162 Z M177.148157,55.6863744 L177.148157,49.1030132 C169.578493,48.6915531 164.873026,50.4745468 164.873026,54.7263009 C164.873026,57.3322147 166.6461,59.3209384 169.919469,59.3209384 C173.124642,59.3209384 175.784254,57.6750981 177.148157,55.6863744 Z M170.737811,26.4041325 C179.875964,26.4041325 185.058798,29.8329664 185.058798,38.6107813 L185.058798,54.6577242 C185.058798,57.263638 185.945335,58.772325 188.059385,58.772325 L189.082313,58.772325 L189.082313,64.6699194 C187.8548,65.4242628 186.490896,65.6299929 185.195188,65.6299929 C181.512648,65.6299929 179.398598,63.7784225 178.307475,61.3096621 L178.034694,61.3096621 C176.466205,63.2983858 173.602008,65.9042996 167.737223,65.9042996 C160.508534,65.9042996 156.621409,60.8296253 156.621409,55.4806444 C156.621409,46.8399828 164.66844,42.7253821 177.148157,43.2054188 L177.148157,39.7765849 C177.148157,34.7704873 174.556741,33.330377 170.737811,33.330377 C166.577905,33.330377 164.463855,35.6619841 163.440927,37.7192845 L157.439751,33.1932237 C158.87185,31.2045 162.55439,26.4041325 170.737811,26.4041325 Z M226.794245,38.8165114 C226.72605,30.2444265 222.361559,26.1298257 214.860089,26.1298257 C210.154622,26.1298257 206.267497,28.5300095 204.426227,30.7930399 L204.153447,30.7930399 L202.448567,27.0213226 L195.970026,27.0213226 L195.970026,65.2185328 L204.358032,65.2185328 L204.358032,38.7479347 C205.585545,35.6619841 208.449743,33.3989537 212.064087,33.3989537 C216.155798,33.3989537 218.338043,36.0048675 218.338043,40.6680817 L218.338043,65.2185328 L226.794245,65.2185328 L226.794245,38.8165114 Z M257.95944,27.6385127 L257.95944,13.2374101 L266.279252,13.2374101 L266.279252,65.2185328 L259.80071,65.2185328 L258.368611,61.7896988 L258.095831,61.7896988 C256.868318,63.3669625 253.594949,65.9042996 248.548506,65.9042996 C240.365085,65.9042996 234.63669,60.4867419 234.63669,48.0057864 C234.63669,32.7131869 242.751916,26.8841692 251.753679,26.8841692 C254.822462,26.8841692 256.527342,27.2956293 257.95944,27.6385127 Z M250.935337,59.0466317 C254.345096,59.0466317 256.663732,57.3322147 258.164026,54.7263009 L258.164026,35.044794 C257.004708,34.3590272 254.617877,33.8789905 252.844802,33.8789905 C247.048212,33.8789905 243.161087,36.759211 243.161087,47.1828662 C243.161087,55.8235278 246.570846,59.0466317 250.935337,59.0466317 Z M276.167552,52.8061539 C276.235748,61.7211222 280.327458,65.9728763 288.374489,65.9728763 C293.693712,65.9728763 296.898886,63.7784225 298.67196,61.5153921 L298.944741,61.5153921 L300.240449,65.2185328 L307.196357,65.2185328 L307.196357,27.0213226 L298.808351,27.0213226 L298.808351,52.9433072 C298.39918,55.9606811 295.875958,59.2523617 291.102296,59.2523617 C286.874195,59.2523617 284.623754,56.7836013 284.623754,51.7775037 L284.623754,27.0213226 L276.167552,27.0213226 L276.167552,52.8061539 Z M349,44.5083757 C349,58.3608649 341.293945,65.3556862 331.542035,65.3556862 C329.427985,65.3556862 327.450324,65.1499561 325.609055,64.738496 L325.609055,78.5224085 L317.289243,78.5224085 L317.289243,27.0213226 L323.495004,27.0213226 L325.268079,30.4501565 L325.54086,30.4501565 C327.109349,28.5300095 330.109936,26.3355558 334.883599,26.3355558 C343.3398,26.3355558 349,32.4388802 349,44.5083757 Z M325.54086,57.3322147 C327.041153,58.0865582 329.427985,58.3608649 330.655498,58.3608649 C336.929454,58.3608649 340.407408,54.7263009 340.407408,45.3312959 C340.407408,36.553481 336.656673,33.2618004 332.292182,33.2618004 C329.087009,33.2618004 326.768373,35.044794 325.54086,37.1020944 L325.54086,57.3322147 Z" id="Combined-Shape-Copy-2"></path>
            </g>
        </g>
    </g>
</svg>